<svg xmlns="http://www.w3.org/2000/svg" width="377.89" height="378.16" viewBox="0 0 1180.89 1181.74"><g fill="none" fill-rule="evenodd" stroke="var(--bldc-line-color)" stroke-linecap="square" stroke-linejoin="bevel"><g fill="none" stroke-linecap="round" stroke-width="2" font-family="Arial" font-size="12" font-weight="400" style="stroke-width:2.3622;stroke-dasharray:none"><path d="M1585.87 1026.57h27M1599.37 1040.07v-27M1067.85 1026.57h-13.5M2130.9 1026.57h13.5" style="stroke-width:2.3622;stroke-dasharray:none" transform="translate(-1009.3 -436.1)"/></g><path d="M2566.47 2019.31a11.3 11.3 0 0 1-8.37-5.92 10.4 10.4 0 0 1-1.26-5.45c0-2.3.4-4.06 1.4-6.07.65-1.33 1.05-1.77 9.13-9.98 11.03-11.2 14.97-15.47 21.9-23.68l5.57-6.6a354 354 0 0 1 17.07-18.68 81 81 0 0 0 4.6-4.96c-.07-.23 5.7-4.65 12.6-9.64l2.08-1.5h1.5c3.9 0 7.38 1.89 9.62 5.22a11 11 0 0 1 1.56 8.43l-.3 1.41-5.92 5.86a676 676 0 0 0-17.03 17.25c-5.5 5.88-6.2 6.68-16.66 19.07-6.98 8.26-13.55 15.22-25.82 27.3l-8.05 7.92-1.37.08c-.75.05-1.76.02-2.25-.06z" style="fill:var(--bldc-phase-1-color);stroke-width:2.3622;stroke-dasharray:none" transform="translate(-2294.16 -1692.44)"/><path d="M2580.2 2035.26c-6.16-1.72-10.71-8.35-9.67-14.07.16-.85.17-1.5.04-1.58-.12-.08 3.67-3.95 8.43-8.6 12.77-12.5 18.27-18.4 28.58-30.68 8.49-10.1 11.86-13.74 24.54-26.47 9.11-9.15 11.79-11.97 11.9-12.55.26-1.4.33-1.44 2.47-1 2.55.52 4.68 1.6 6.53 3.3q4.5 4.15 4.35 9.51c-.08 3.54.4 2.9-10.17 13.4-10.97 10.9-17.01 17.32-23.47 24.95-13.89 16.4-15.55 18.22-29.15 31.73-10.55 10.48-10.89 10.84-10.77 11.61l.13.8-1.32-.02a12 12 0 0 1-2.42-.33z" style="fill:var(--bldc-phase-1-color);stroke-width:2.3622;stroke-dasharray:none" transform="translate(-2294.16 -1692.44)"/><path d="M2592.92 2049.79c-5.49-1.88-9.67-8.1-8.9-13.29.1-.69.2-1.55.24-1.9.05-.49 2.43-3 9.71-10.2 12.68-12.56 18.16-18.47 27.66-29.85 8.26-9.89 15.49-17.61 27.37-29.25 5.36-5.25 8.6-8.6 8.53-8.8s-.07-.6.02-.94c.17-.69.77-.75 2.85-.32 3.95.83 7.61 3.74 9.45 7.5l.95 1.94.01 3.39.02 3.39-8.72 8.53c-12.43 12.17-18.08 18.26-28.93 31.15-8.04 9.55-11.15 12.9-24.07 25.89-6.63 6.66-11.93 12.1-11.79 12.1s.21.28.15.62c-.11.57-.22.61-1.5.6-.79 0-2.1-.24-3.04-.56z" style="fill:var(--bldc-phase-1-color);stroke-width:2.3622;stroke-dasharray:none" transform="translate(-2294.16 -1692.44)"/><path d="M2608.61 2065.08c-3.24-.34-6.83-2.69-8.96-5.88-1.75-2.62-2.33-5.3-1.95-8.95l.15-1.47 9.93-9.84c13.6-13.48 16.44-16.55 29.3-31.78 6.9-8.17 12.03-13.63 23.6-25.14 5.75-5.73 10.45-10.6 10.44-10.8-.11-1.51-.05-1.57 1.46-1.4.78.1 2.1.4 2.93.67 5.56 1.8 9.68 7.86 9.02 13.24-.11.88-.2 1.8-.21 2.03s-5.39 5.82-11.95 12.42c-12.75 12.8-15.93 16.23-23.83 25.65-10.3 12.27-16.53 18.97-29.24 31.41-6.04 5.92-8.62 8.6-8.62 8.97-.01.94-.27 1.05-2.07.87z" style="fill:var(--bldc-phase-1-color);stroke-width:2.3622;stroke-dasharray:none" transform="translate(-2294.16 -1692.44)"/><path d="M2619.69 2078.25a11 11 0 0 1-7.12-5.43c-1.12-2.2-1.44-3.8-1.35-6.6l.08-2.58 8.7-8.55c12.76-12.5 18.05-18.18 28.03-30.05 8.94-10.63 12.54-14.51 25.05-27.04 6.55-6.55 11.8-11.95 11.67-12-.13-.03-.18-.34-.12-.68.1-.55.23-.6 1.41-.6 6.44 0 12.83 7.25 12.04 13.64-.1.81-.2 1.78-.23 2.14-.04.53-2.08 2.67-9.5 9.99-12.5 12.34-17.44 17.64-27.02 29.04-6.75 8.03-8.22 9.7-13.62 15.48-5.52 5.92-22.93 23.11-23.7 23.4-.8.32-2.63.25-4.32-.16z" style="fill:var(--bldc-phase-1-color);stroke-width:2.3622;stroke-dasharray:none" transform="translate(-2294.16 -1692.44)"/><path d="M2633.08 2093a11.3 11.3 0 0 1-8.17-8.5c-.24-1.12-.19-4.24.1-5.68.05-.24 5.4-5.77 11.89-12.3 12.93-12.99 15.54-15.82 25.07-27.11 9.39-11.13 13.22-15.25 25.4-27.34 9.94-9.88 10.96-10.96 10.96-11.68 0-.74.07-.8.93-.87 4.92-.41 10.93 4.63 12.23 10.25.27 1.17.24 3.08-.09 5.64q-.08.59-10.52 10.95c-12.69 12.57-16.98 17.21-26.88 29.04-8.04 9.6-12.45 14.34-25.75 27.6l-10.41 10.39-1.72-.02c-.94 0-2.3-.17-3.04-.37z" style="fill:var(--bldc-phase-1-color);stroke-width:2.3622;stroke-dasharray:none" transform="translate(-2294.16 -1692.44)"/><path d="M2647.31 2109.06a14.1 14.1 0 0 1-8.85-9.74c-.27-1.18-.24-3.09.09-5.65q.08-.57 10.41-10.82c13.25-13.11 16.85-17.02 28.36-30.75 6.48-7.74 10.25-11.77 22.66-24.25 6.6-6.63 11.94-12.13 11.85-12.22s-.09-.44 0-.78c.13-.52.3-.63 1-.63 5.27 0 11.03 4.88 12.2 10.32.25 1.14.2 3.56-.1 5.6-.05.35-4.49 5-11.75 12.3-12.49 12.55-16.13 16.47-23.91 25.75-10.48 12.48-16.39 18.84-28.99 31.17-8.07 7.9-8.73 8.61-8.7 9.34l.04.8-1.35.05q-1.36.06-2.96-.49z" style="fill:var(--bldc-phase-1-color);stroke-width:2.3622;stroke-dasharray:none" transform="translate(-2294.16 -1692.44)"/><path d="M2663.08 2124.34c-2.7-.26-5.05-1.5-7.4-3.88-2-2.02-2.94-3.66-3.6-6.22-.38-1.46-.37-2.34 0-5.75.04-.31 3.87-4.28 9.6-9.96 13.14-13 17.2-17.36 27.72-29.87 8.79-10.44 12.52-14.46 24.8-26.67 9.68-9.63 11.24-11.28 11.15-11.8-.2-1.16.15-1.33 2.23-1.03 3.62.5 6.67 2.47 9.01 5.8 1.75 2.49 2.24 4.26 2.14 7.73l-.07 2.77-9.08 8.9c-12.61 12.38-18 18.22-30.14 32.63-6.64 7.9-10.37 11.88-22.55 24.1-6.54 6.56-11.79 11.95-11.67 12 .24.07.09 1.24-.17 1.36-.08.04-.97-.01-1.97-.1z" style="fill:var(--bldc-phase-1-color);stroke-width:2.3622;stroke-dasharray:none" transform="translate(-2294.16 -1692.44)"/><path d="M2676.08 2139.1c-3.6-.59-7.67-3.77-9.42-7.36a11.7 11.7 0 0 1-1.18-6.94 6 6 0 0 0 .16-1.65c-.06-.1 4.38-4.64 9.86-10.1 14.27-14.23 17.41-17.62 27.27-29.36 9.31-11.08 15.51-17.71 28.34-30.28 5.2-5.11 7.9-7.91 7.8-8.14-.07-.2-.06-.64.03-.98.15-.6.2-.62 1.69-.47 4.54.47 8.26 3.2 10.52 7.75l1.03 2.08.01 3.27.02 3.27-9.99 9.93c-13.61 13.53-17.11 17.3-27.83 30.04-8.21 9.76-13.09 14.98-25.19 27-8.77 8.72-10.64 10.7-10.77 11.38-.17.9-.16.9-2.34.55z" style="fill:var(--bldc-phase-1-color);stroke-width:2.3622;stroke-dasharray:none" transform="translate(-2294.16 -1692.44)"/><path d="M2685 2151.3a11.1 11.1 0 0 1-5.94-11.55c.15-.95.28-1.87.28-2.04.01-.17 3.9-4.1 8.63-8.73 12.3-12.05 17.88-18.03 28.21-30.3 8.78-10.43 11.84-13.73 24.67-26.62l11.82-11.87h1.86c5.8.01 10.31 3.76 11.32 9.4.54 3.02-.38 7.13-2.08 9.34-.54.7-2.07 1.82-5.05 3.68a236 236 0 0 0-70.22 67.76c-.65.98-1.31 1.78-1.48 1.78s-1.07-.39-2.02-.86zM3092.51 2164.67a14 14 0 0 1-4.38-2.21 14 14 0 0 1-2.2-2.86c-3.9-6.4-9.65-14.77-14.35-20.85a220 220 0 0 0-20.3-23 227 227 0 0 0-33.13-27.64l-3.22-2.22.47-1.22c1.64-4.33 5.6-7 10.34-7.01.9 0 2.22.13 2.91.29 1.24.28 1.52.54 10.38 9.52 12.97 13.17 17.24 17.14 29.21 27.19 10.17 8.53 13.33 11.46 26.47 24.55l12.1 12.03.15 1.26c.19 1.5-.35 4.3-1.12 5.83a11.5 11.5 0 0 1-10.52 6.58 17 17 0 0 1-2.8-.24z" style="fill:var(--bldc-phase-1-color);stroke-width:2.3622;stroke-dasharray:none" transform="translate(-2294.16 -1692.44)"/><path d="M3108.82 2150.9a7 7 0 0 0-1.75-.1c-.1.07-4.04-3.83-8.75-8.64-11.3-11.55-18.48-18.28-28-26.26-12.76-10.7-14.86-12.64-29.25-26.96-8.26-8.22-11.99-11.76-12.42-11.82-.52-.07-.63-.23-.7-1.03-.1-1.34.77-3.98 1.88-5.7a16 16 0 0 1 5.95-5.25c1.83-.88 1.87-.89 5.09-.89h3.24l11.88 11.82c12.24 12.17 16.27 15.94 24.05 22.48 14.45 12.16 20.28 17.55 32.68 30.2 5.09 5.2 9.05 9.06 9.17 8.94s.49-.17.82-.1c.55.1.6.23.6 1.41 0 5.67-5.58 11.34-11.8 12-.61.06-1.82.02-2.69-.1z" style="fill:var(--bldc-phase-1-color);stroke-width:2.3622;stroke-dasharray:none" transform="translate(-2294.16 -1692.44)"/><path d="m3122.94 2137.32-1.48-.29-9.46-9.56c-13-13.14-17.51-17.29-32.21-29.65-7.81-6.58-12.57-11.04-24.13-22.66-7.38-7.4-11.38-11.26-11.68-11.24-1.13.1-1.31-.02-1.31-.86 0-2.81 1.28-5.8 3.52-8.2 3.31-3.55 6.73-4.78 11.68-4.21l1.32.15 10.49 10.58c13.38 13.5 16.2 16.1 30.9 28.46 7.69 6.47 11.98 10.48 24.03 22.47 6.46 6.43 11.94 11.7 12.17 11.72 1.32.07 1.28.03 1.28 1.5-.01 2.62-1.45 5.72-3.67 7.95-3.25 3.24-7.4 4.64-11.45 3.84z" style="fill:var(--bldc-phase-1-color);stroke-width:2.3622;stroke-dasharray:none" transform="translate(-2294.16 -1692.44)"/><path d="M3138.55 2123.85a7 7 0 0 0-1.64-.1c-.16.05-4.03-3.68-8.6-8.3-14.23-14.4-18.4-18.29-30.45-28.43-11.77-9.91-17.37-15.14-30.75-28.74-4.43-4.5-8.12-8.08-8.2-7.95s-.46.17-.85.1l-.7-.14.16-1.6c.34-3.28 1.63-5.74 4.32-8.23 2.83-2.62 6.02-3.83 9.22-3.5l2.3.23c.38.04 4.31 3.79 12.17 11.62 12.8 12.76 15.73 15.51 23.8 22.34 15.1 12.75 18.07 15.49 31.46 28.97 6.04 6.09 10.6 10.48 10.75 10.39.15-.1.53-.1.85-.02.55.13.59.24.49 1.42a12.5 12.5 0 0 1-3.62 7.9c-3.05 3.13-6.96 4.6-10.7 4.04z" style="fill:var(--bldc-phase-1-color);stroke-width:2.3622;stroke-dasharray:none" transform="translate(-2294.16 -1692.44)"/><path d="M3142.48 2101.22c-12.38-12.63-18.23-18.04-32.7-30.2-7.93-6.69-11.9-10.4-24-22.48-11.59-11.56-11.84-11.84-11.96-12.91-.34-2.99 1.02-6.78 3.22-9.02a11.6 11.6 0 0 1 9.1-3.18l2.13.22c.3.03 5.3 4.87 12.17 11.74 12.3 12.3 16.2 15.92 26.8 24.82 11.35 9.52 17.5 15.25 29.64 27.61 7.97 8.11 9.14 9.21 9.7 9.11 1.18-.21 1.33.13 1.02 2.27-.68 4.65-4.3 8.96-8.86 10.57-1.74.62-4.84.8-6.35.36-.48-.14-.8-.14-.86 0-.04.14-4.11-3.87-9.05-8.9z" style="fill:var(--bldc-phase-1-color);stroke-width:2.3622;stroke-dasharray:none" transform="translate(-2294.16 -1692.44)"/><path d="M3167.77 2096.71a3 3 0 0 0-.9-.2c-.68-.08-2.57-1.85-12.53-11.76-12.73-12.66-16.38-16.05-26.47-24.52-12.09-10.16-18.63-16.25-31.05-28.97l-8.18-8.37v-1.85a11 11 0 0 1 12.17-11.13c1.08.1 2.16.17 2.39.17s4.08 3.73 8.6 8.36c12.17 12.45 18.54 18.37 31.29 29.1 9.57 8.05 12.92 11.16 25.89 24.07 6.66 6.62 12.1 11.92 12.1 11.77q.01-.27.68-.1c.82.22.95.86.57 2.9-.83 4.56-4.85 8.87-9.59 10.26-1.23.36-4.69.55-4.97.27z" style="fill:var(--bldc-phase-1-color);stroke-width:2.3622;stroke-dasharray:none" transform="translate(-2294.16 -1692.44)"/><path d="M3182.32 2083.05c-.48-.12-1-.17-1.16-.11-.17.05-3.93-3.6-8.36-8.14-12.05-12.31-18.89-18.7-30.01-28.03-11.1-9.3-13.12-11.18-27.6-25.59-9.86-9.8-12.06-11.88-12.6-11.88-.57 0-.67-.1-.67-.7 0-4.94 4.26-10.3 9.42-11.88 1.44-.43 2.11-.5 4.28-.38l2.57.13 11.97 11.9c13 12.95 16.1 15.82 26.47 24.53 11.89 9.98 15.26 13.11 28.72 26.66 5.8 5.83 10.58 10.47 10.64 10.32s.38-.22.72-.15c.53.1.6.24.6 1.14 0 5.1-4.6 10.67-9.96 12.06-1.56.4-3.66.46-5.03.12z" style="fill:var(--bldc-phase-1-color);stroke-width:2.3622;stroke-dasharray:none" transform="translate(-2294.16 -1692.44)"/><path d="M3198 2069.66a4 4 0 0 0-1.26-.22l-1.14-.09-9.32-9.44c-12.68-12.84-17.9-17.67-30.65-28.39-9.57-8.04-13.38-11.59-25.61-23.85-7.34-7.35-11.77-11.63-12.05-11.6-1.35.11-1.38.07-1.2-1.65.51-5.01 4.12-9.44 9.12-11.2 1.32-.46 2.66-.54 6.45-.38.71.03 1.77 1.01 9.47 8.87 12.5 12.73 17.88 17.74 30.55 28.41 10.27 8.65 14.14 12.24 26.77 24.88 6.35 6.35 11.6 11.42 11.7 11.29.08-.14.4-.19.7-.11.46.12.54.31.54 1.3 0 5.35-5.24 11.18-10.82 12.05-1.76.28-3.05.33-3.24.13zM3226.15 2042.45c-.92-.24-2.01-1.26-9.45-8.86-11.94-12.2-18.64-18.42-31.05-28.85-9.59-8.05-12.94-11.16-25.8-23.96l-12.02-11.96v-1.97c0-4.02 1.59-7.01 5.07-9.59 2.1-1.55 4.24-2.14 7.18-1.99 2 .1 2.54.24 4.2 1.03 1.76.83 2.38 1.37 7.7 6.62 13.29 13.12 18.17 17.67 26.56 24.74 12.7 10.7 16.2 13.85 26.29 23.59 6.18 5.98 7.9 8.01 13.96 16.59 1.71 2.4 1.86 3.07 1.28 5.85-.77 3.71-3.26 6.7-6.98 8.34-1.43.63-5.2.86-6.94.42z" style="fill:var(--bldc-phase-1-color);stroke-width:2.3622;stroke-dasharray:none" transform="translate(-2294.16 -1692.44)"/><path d="m3212.01 2055.93-1.65-.28-11.87-11.82c-12.82-12.76-15.9-15.62-26.34-24.42-12.27-10.33-17.95-15.62-30.25-28.18-4.86-4.95-8.9-8.9-8.98-8.76-.24.38-1.5.03-1.5-.42 0-.22.12-1.12.26-2 1.04-6.6 8.07-11.94 14.23-10.83.83.15 1.6.22 1.72.14s3.85 3.55 8.3 8.05c14.17 14.36 18.84 18.74 29.98 28.07 12.06 10.12 18.66 16.3 33.28 31.18 3.16 3.2 5.8 5.84 5.88 5.84s.56.11 1.07.25c.82.23.92.35.92 1.06 0 .44-.17 1.45-.37 2.24-1.28 4.88-5.92 9.22-10.69 9.96-1.83.29-1.79.29-3.99-.08zM3010.98 2505.33c-6.85-1.9-10.14-8.7-7.66-15.78 1.03-2.93 1.03-2.93 8.12-7.41 26.53-16.8 50.9-40.44 68.35-66.37.74-1.1 1.53-2.01 1.74-2.01.73-.01 3.4 1.48 4.63 2.6a11.6 11.6 0 0 1 3.23 6.22 9.5 9.5 0 0 1 0 3.82l-.33 2.07-8.24 8.07c-12.64 12.37-18.16 18.3-28.6 30.69-8.8 10.46-11.85 13.75-24.6 26.54l-11.76 11.8-1.78.06a12 12 0 0 1-3.1-.3z" style="fill:var(--bldc-phase-1-color);stroke-width:2.3622;stroke-dasharray:none" transform="translate(-2294.16 -1692.44)"/><path d="M3027.05 2521.91c-2.94-.5-4.95-1.63-7.3-4.12-2.75-2.92-3.82-5.88-3.53-9.84l.17-2.37 12.23-12.3c12.6-12.66 15.95-16.28 24.24-26.18 9.5-11.34 16.02-18.31 29.07-31.1 6.6-6.48 7.95-7.91 8.08-8.62.18-.96.4-1 2.6-.6 3.16.59 6.5 2.99 8.53 6.12a10 10 0 0 1 1.86 6.17c0 4.08.97 2.76-10.16 13.84-14.17 14.1-17 17.18-29.92 32.53-6.14 7.28-11.94 13.44-23.02 24.44-6.52 6.46-10.47 10.56-10.4 10.77.08.19.07.6-.02.93-.16.65-.36.68-2.43.33z" style="fill:var(--bldc-phase-1-color);stroke-width:2.3622;stroke-dasharray:none" transform="translate(-2294.16 -1692.44)"/><path d="M3040.82 2536.67c-2.82-.37-5.14-1.6-7.37-3.89-3.12-3.22-4.37-7.03-3.6-11.03q.2-1.05-.05-1.05c-.14 0 4.78-5 10.94-11.12 13.33-13.24 16-16.14 28.23-30.68 6.6-7.83 10.34-11.83 22.49-24.03 10.84-10.9 11.8-11.93 11.73-12.6-.1-.99.32-1.11 2.5-.77 4.85.78 9.18 4.75 10.62 9.72.39 1.35.4 3.29.04 6.17-.03.27-5 5.42-11.14 11.56-13.97 13.93-15.64 15.75-28.34 30.83-6.6 7.83-11.11 12.64-22.7 24.17-6.64 6.6-11.23 11.34-11.13 11.5.24.4-.09 1.48-.44 1.45z" style="fill:var(--bldc-phase-1-color);stroke-width:2.3622;stroke-dasharray:none" transform="translate(-2294.16 -1692.44)"/><path d="M3053.76 2551.4c-4.64-.78-9.38-5.46-10.37-10.24-.25-1.21-.21-3.29.1-5.53.04-.23 5.32-5.71 11.74-12.17 12.67-12.73 16.05-16.38 24.53-26.47 10.27-12.23 16.18-18.57 29-31.08 7.3-7.14 8.12-8.02 8.02-8.6-.2-1.12.08-1.26 2-1.02 2.33.29 4.1 1 5.88 2.33a15 15 0 0 1 4.52 5.53c.84 1.76.88 1.96.88 4.43 0 1.42-.05 2.94-.1 3.39-.08.69-1.28 1.97-8.53 9.06-12.44 12.17-18.18 18.35-28.98 31.18-8.05 9.57-11.16 12.91-24.07 25.89-6.62 6.66-11.92 12.1-11.77 12.1q.27.01.1.68c-.21.78-.81.9-2.95.53z" style="fill:var(--bldc-phase-1-color);stroke-width:2.3622;stroke-dasharray:none" transform="translate(-2294.16 -1692.44)"/><path d="M3067.05 2566.17a13 13 0 0 1-5.06-2.5c-3.72-3.04-5.63-7.1-5.18-11l.23-2.18c.03-.4 3.19-3.7 10.5-10.94 13.05-12.96 16.29-16.47 28.24-30.65 7.09-8.4 9.67-11.17 22.34-23.91l12.41-12.48h1.9q3.6 0 6.58 1.98c3.52 2.36 5.2 6.41 4.63 11.18l-.21 1.72-11.61 11.68c-14.15 14.22-15.86 16.08-25.35 27.4-8.63 10.32-13.17 15.19-25.77 27.7-5.95 5.9-10.7 10.76-10.55 10.82.14.05.2.4.13.77-.12.6-.23.67-1.15.64-.56-.01-1.5-.12-2.08-.23z" style="fill:var(--bldc-phase-1-color);stroke-width:2.3622;stroke-dasharray:none" transform="translate(-2294.16 -1692.44)"/><path d="M3079.55 2580.62a12.3 12.3 0 0 1-5.13-3.13c-3.28-3.24-4.48-6.74-3.93-11.5l.15-1.3 9.43-9.3c12.8-12.62 17.51-17.7 28.4-30.65 8.1-9.63 11.61-13.4 24-25.77l11.8-11.77 2.25.13c5.1.28 8.78 3.07 10.25 7.78.4 1.32.49 2.13.42 4.38l-.07 2.76-8.72 8.55c-12.9 12.67-18.4 18.58-29.18 31.42-8.02 9.55-11.58 13.37-23.85 25.63-7.12 7.11-11.62 11.79-11.6 12.05.1 1.2 0 1.28-1.34 1.28-.7 0-2-.26-2.88-.56z" style="fill:var(--bldc-phase-1-color);stroke-width:2.3622;stroke-dasharray:none" transform="translate(-2294.16 -1692.44)"/><path d="M3093.07 2595.38a13.4 13.4 0 0 1-7.95-7.04l-1.03-2.08v-6.53l11.94-12c12.8-12.87 15.93-16.23 23.95-25.77 10.38-12.36 16.53-18.97 29.1-31.27 7.27-7.13 8.62-8.55 8.76-9.28.19-1.01.37-1.05 2.9-.5 2.21.46 3.87 1.39 5.88 3.27 3.1 2.92 4.23 5.4 4.17 9.2a67 67 0 0 1-.1 3.06c-.04.5-2 2.56-8.35 8.79-12.47 12.22-18.63 18.81-27.8 29.75-9.55 11.38-13.24 15.36-26.94 29.03-7.28 7.25-10.31 10.44-10.22 10.72.07.22.05.58-.03.8-.23.6-2.32.52-4.28-.15z" style="fill:var(--bldc-phase-1-color);stroke-width:2.3622;stroke-dasharray:none" transform="translate(-2294.16 -1692.44)"/><path d="M3108.43 2610.66c-3.84-.55-7.82-3.61-9.75-7.5a8 8 0 0 1-1.13-4.32c-.06-1.26 0-2.7.14-3.2q.24-.9 0-.99c-.13-.04 3.76-4 8.65-8.78 12.47-12.21 18.38-18.57 29-31.22 7.83-9.33 11.06-12.8 23.97-25.77 6.62-6.66 11.92-12.11 11.77-12.11q-.27-.01-.09-.68c.18-.65.23-.67 1.64-.6 1.83.12 3.99.83 5.6 1.87 1.8 1.15 4.17 3.8 5.03 5.6 1.24 2.61 1.46 4.6.92 8.32-.06.43-3.65 4.18-11.75 12.29-11.9 11.9-15.58 15.84-22.32 23.85-12.23 14.52-14.9 17.42-28.21 30.65-6.74 6.7-11.11 11.22-11 11.38.09.16.1.55.01.88-.16.65-.19.66-2.47.33z" style="fill:var(--bldc-phase-1-color);stroke-width:2.3622;stroke-dasharray:none" transform="translate(-2294.16 -1692.44)"/><path d="M3120.36 2625.13a13 13 0 0 1-5.55-3.52c-3.14-3.23-4.35-7.11-3.5-11.28l.28-1.43 9.58-9.5c12.44-12.33 17.32-17.57 26.23-28.17 10.22-12.15 15.6-17.95 27.9-30.02 8.58-8.44 9.41-9.33 9.38-10.03l-.03-.77 1.93.03c1.72.03 2.13.14 3.95 1.04 3.4 1.68 6.25 5.09 7.14 8.53.41 1.58.47 3.58.16 5.2-.12.63-.1 1.07.03 1.12.13.04-3.56 3.78-8.19 8.3-12.8 12.53-18.56 18.7-28.84 30.94-8.43 10.04-11.83 13.7-24.48 26.41-10.26 10.32-11.71 11.87-11.9 12.73-.22.97-.24.98-1.36.97-.62 0-1.85-.25-2.73-.55z" style="fill:var(--bldc-phase-1-color);stroke-width:2.3622;stroke-dasharray:none" transform="translate(-2294.16 -1692.44)"/><path d="M3133.07 2638.7c-2.93-.7-6.26-3.4-7.6-6.18a12 12 0 0 1-.92-6.71l.28-1.72 10.36-10.33c12.7-12.65 17.39-17.7 26.24-28.27 9.39-11.2 10.51-12.42 25.28-27.25l11.71-11.76 2.34.1c2.81.13 4.51.72 6.62 2.3 4.24 3.19 5.48 9.88 2.82 15.14-.47.92-2.87 3.52-9.01 9.76-9.99 10.14-15.27 15.85-21.49 23.2-11.35 13.45-14.97 17.48-22.8 25.43-2.81 2.87-5.06 5.3-5 5.42.12.18-7.71 6.2-12.7 9.75-1.9 1.36-1.96 1.38-3.56 1.36-.9-.02-2.06-.13-2.57-.25zM2606.38 2610.33a10 10 0 0 1-3.77-1.66c-.63-.44-5.08-4.67-9.88-9.4-9.9-9.77-15.2-14.66-22.98-21.24-13.34-11.27-17.62-15.12-26.52-23.9-5.78-5.69-6.34-6.32-10.2-11.55-5.2-7.03-5.13-6.89-4.76-9.4.51-3.53 2.22-6.35 4.92-8.14 2.2-1.46 3.56-1.88 6.02-1.88 3.67 0 2.65-.78 15.78 12.26 12.7 12.62 16.1 15.78 25.59 23.76 12.83 10.8 19.4 16.9 31.63 29.42 9.32 9.54 8.88 8.88 8.3 12.24-1.1 6.63-7.78 11.11-14.13 9.5z" style="fill:var(--bldc-phase-1-color);stroke-width:2.3622;stroke-dasharray:none" transform="translate(-2294.16 -1692.44)"/><path d="M2609.57 2585.45c-13.86-13.9-15.87-15.75-30.85-28.36-2.5-2.1-6.41-5.52-8.72-7.61a732 732 0 0 1-23.86-23.61c-2.03-2.2-2.31-2.43-3.5-2.7-1.45-.33-1.44-.31-1.03-2.6.93-5.13 5.63-9.78 10.8-10.7a9 9 0 0 1 3.77 0l2.01.33 10.7 10.76c13.34 13.42 15.81 15.7 30.73 28.26 8.06 6.79 11.96 10.45 23.93 22.42 9.75 9.75 11.84 11.74 12.29 11.63 1.1-.25 1.28.16.99 2.2-.7 4.82-4.5 9.28-9.17 10.73-1.3.41-2.12.5-4.32.43l-2.71-.08z" style="fill:var(--bldc-phase-1-color);stroke-width:2.3622;stroke-dasharray:none" transform="translate(-2294.16 -1692.44)"/><path d="M2636.25 2582.97c-.76-.08-2.2-1.44-12.54-11.72-14.5-14.43-15.3-15.17-30.68-28.15-7.71-6.5-13.32-11.77-24.51-23.04-10.27-10.33-10.6-10.63-11.37-10.5l-.8.13v-1.08c0-4.18 3.2-9.02 7.33-11.09a11 11 0 0 1 6.44-1.3c1 .1 2.04.2 2.29.21.25.02 3.83 3.47 7.97 7.67 13.6 13.8 19.08 18.92 30.92 28.9 11.89 10.01 16.55 14.37 30.57 28.55 7.51 7.6 8.24 8.27 8.96 8.24.74-.04.8.02.87.9.22 2.68-1.26 5.95-3.87 8.53-3.38 3.35-6.44 4.34-11.58 3.75z" style="fill:var(--bldc-phase-1-color);stroke-width:2.3622;stroke-dasharray:none" transform="translate(-2294.16 -1692.44)"/><path d="M2639.57 2558.7c-13.4-13.51-16.17-16.05-30.85-28.41-7.82-6.58-11.83-10.33-24.12-22.55-6.56-6.53-12-11.8-12.1-11.72-.08.08-.43.08-.78 0-.75-.2-.8-.93-.24-3.32 1.08-4.58 5.3-8.8 9.92-9.86 1.17-.28 4.18-.24 5.78.07.25.05 5.73 5.34 12.17 11.76 12.38 12.35 16.33 16 26.82 24.82 11.72 9.84 17.8 15.51 30.35 28.33 6.81 6.96 8.5 8.56 9.16 8.68.77.14.81.2.81 1.2 0 4.78-4.92 10.47-10.08 11.66-1.4.33-3.81.34-4.9.02-.52-.14-.9-.15-1 0-.07.12-5-4.68-10.94-10.68z" style="fill:var(--bldc-phase-1-color);stroke-width:2.3622;stroke-dasharray:none" transform="translate(-2294.16 -1692.44)"/><path d="M2666.63 2555.84a5 5 0 0 0-1.37-.1c-.1.06-4.25-4-9.24-9.01-14.15-14.21-18.06-17.85-30.46-28.29-10.45-8.79-14.74-12.79-26.8-24.92-9.63-9.7-11.15-11.12-11.68-11.02-1.18.2-1.33-.14-1.01-2.26.7-4.76 4.26-8.98 8.92-10.6 1.55-.54 2.08-.6 4.57-.53l2.82.08 8.4 8.58c12.16 12.44 18.42 18.26 31.24 29.04 9.55 8.04 12.91 11.16 25.73 23.92 11.69 11.62 11.96 11.91 12.11 13 .09.62.04 1.86-.1 2.76a11.2 11.2 0 0 1-8.77 9.25c-1.83.4-2.54.4-4.36.1z" style="fill:var(--bldc-phase-1-color);stroke-width:2.3622;stroke-dasharray:none" transform="translate(-2294.16 -1692.44)"/><path d="M2681.27 2542.32a4 4 0 0 0-1.26-.1c-.1.07-4.32-4.07-9.37-9.18-13.53-13.7-17.5-17.4-28.87-26.96-11.34-9.52-15.55-13.42-28.87-26.78-6.32-6.33-10.58-10.43-10.78-10.36a2 2 0 0 1-.88-.01c-.51-.13-.55-.26-.46-1.42.26-3.18 1.5-5.78 3.87-8.15 3.11-3.11 6.57-4.35 10.58-3.79l1.97.28 11.92 11.85c13.02 12.93 16.22 15.89 26.3 24.35 11.94 10.03 18.18 15.85 30.59 28.51 8.45 8.63 8.53 8.73 8.67 9.9.32 2.7-1.13 6.6-3.24 8.75a11.7 11.7 0 0 1-10.17 3.1z" style="fill:var(--bldc-phase-1-color);stroke-width:2.3622;stroke-dasharray:none" transform="translate(-2294.16 -1692.44)"/><path d="M2696.37 2528.8a6 6 0 0 0-1.5-.13c-.14.05-4.13-3.84-8.85-8.65-12.36-12.59-18.84-18.65-29.25-27.35-11.38-9.5-17.27-14.97-30.07-27.9-5.77-5.84-9.74-9.68-9.84-9.52s-.42.21-.72.14c-.46-.12-.54-.31-.53-1.29.01-2.94 1.33-5.79 3.84-8.3 3.05-3.05 6.78-4.4 10.45-3.8.92.15 1.77.25 1.9.21.12-.03 4.41 4.19 9.53 9.38 12.7 12.9 17.07 16.92 32.9 30.31 8.13 6.87 11.74 10.27 23.91 22.48 7.02 7.04 11.28 11.14 11.56 11.12 1.17-.1 1.3 0 1.3 1.1 0 1.43-.62 3.68-1.42 5.19-.37.69-1.5 2.1-2.54 3.15a12.5 12.5 0 0 1-7.1 3.86 7.4 7.4 0 0 1-3.57 0z" style="fill:var(--bldc-phase-1-color);stroke-width:2.3622;stroke-dasharray:none" transform="translate(-2294.16 -1692.44)"/><path d="M2710.13 2515.13c-.57-.1-3.33-2.7-12.66-11.98-12.9-12.84-16.03-15.74-26.32-24.4-12.12-10.2-18.33-15.98-30.56-28.47-7.42-7.58-9.6-9.67-8.86-8.46q.18.3-.25.12c-.24-.09-.59-.16-.78-.16-.86 0-.2-3.77 1.1-6.27 2.36-4.56 7.7-7.66 12.3-7.13.89.1 1.89.2 2.21.21.44.03 2.73 2.21 8.6 8.22 12.1 12.34 19.04 18.82 30.51 28.46 10.46 8.79 13.2 11.33 26.35 24.4 7.17 7.13 12.57 12.33 12.73 12.23.15-.09.49-.1.76 0 .96.3.48 3.6-.93 6.39-1 1.99-4.07 4.86-6.33 5.94-1.8.85-2.08.91-4.52.96-1.43.03-2.94 0-3.35-.06z" style="fill:var(--bldc-phase-1-color);stroke-width:2.3622;stroke-dasharray:none" transform="translate(-2294.16 -1692.44)"/><path d="M2725.15 2501.51c-.4-.11-.8-.16-.9-.1s-4.02-3.82-8.72-8.62c-12.08-12.35-18.16-18-30.22-28.15-10.37-8.72-13.46-11.58-26.62-24.68-6.66-6.63-12.11-11.92-12.11-11.77q-.01.25-.68.09c-.83-.22-1-1.19-.55-3.22 1.23-5.6 6.74-10.16 12.3-10.2 3.99-.02 2.49-1.16 15.8 12.07 12.38 12.32 16.72 16.34 26.11 24.2 11.83 9.91 18.4 16.03 30.59 28.47 7.33 7.5 8.83 8.9 9.55 9.04l.86.16-.12 1.71c-.33 4.57-4.8 9.62-9.66 10.88-1.56.4-4.46.47-5.63.12z" style="fill:var(--bldc-phase-1-color);stroke-width:2.3622;stroke-dasharray:none" transform="translate(-2294.16 -1692.44)"/><path d="M2739.88 2487.91c-1.2-.27-1.56-.6-10.57-9.71-12.96-13.1-17.5-17.3-29.87-27.7-10-8.4-14.43-12.5-26.64-24.8l-11.27-11.33.09-2.48c.08-2.3.16-2.64 1.03-4.39 2.28-4.62 7.24-7.3 12.09-6.54 2.04.32 4.28 1.33 5.68 2.55a19 19 0 0 1 2.56 3.41 238 238 0 0 0 67.42 70.86c3.54 2.43 3.4 2.12 2.06 4.67-2.33 4.43-7.4 6.64-12.58 5.46z" style="fill:var(--bldc-phase-1-color);stroke-width:2.3622;stroke-dasharray:none" transform="translate(-2294.16 -1692.44)"/><path d="M2796.06 2704.22c-18.62-4.89-25.82-6.54-37.98-8.7-14.34-2.56-22.14-4.22-32.95-7.01a63 63 0 0 0-5.66-1.3c-.71.05-15.26-6.1-16.77-7.08-.33-.22-1-1.24-1.5-2.28-.88-1.85-.9-1.94-.9-4.84 0-2.7.06-3.07.68-4.4.38-.8 1.08-1.97 1.56-2.6a13 13 0 0 1 5.5-3.7l1.39-.44 9.7 2.68c18.36 5.09 26.26 6.93 40.92 9.55 17.55 3.15 22.09 4.21 46.59 10.96 3.3.91 6.22 1.83 6.46 2.04.78.69 2.12 3.8 2.39 5.52.33 2.18-.03 4.44-1.02 6.41-.91 1.8-3.26 4.2-5.05 5.15a17 17 0 0 1-6.2 1.64c-.62-.01-3.84-.73-7.16-1.6z" style="fill:var(--bldc-phase-2-color);stroke-width:2.3622;stroke-dasharray:none" transform="translate(-2294.16 -1692.44)"/><path d="M2815.78 2692.28c-.3-1.76-1.36-4.28-2.22-5.29-.34-.4-1.94-.94-6.45-2.19-13.88-3.82-23.38-6.3-29.14-7.58-5.67-1.26-8.23-1.75-21.86-4.2-6.6-1.19-11.77-2.3-19.42-4.19-7.29-1.8-25.86-6.87-26.47-7.23q-.4-.24-1.58.12c-1.43.43-1.54.35-2.31-1.74-1.64-4.44-.3-10.34 3.1-13.75 1.32-1.31 4.37-3.09 5.32-3.09.21 0 .42-.1.47-.24s4.67 1.04 10.28 2.59c18.48 5.11 26.28 6.93 40.57 9.46a334 334 0 0 1 37 8.35c14.9 4.1 15.85 4.34 16.05 4.04.1-.15.42-.33.7-.4.47-.12.65.1 1.35 1.62 1.46 3.15 1.25 7.75-.53 11.23a12.7 12.7 0 0 1-6.54 5.8c-1.18.5-1.3.59-.62.5.97-.1 1.26.23 2.02 2.43.44 1.29.98 5.51.69 5.51-.06 0-.25-.79-.41-1.75z" style="fill:var(--bldc-phase-2-color);stroke-width:2.3622;stroke-dasharray:none" transform="translate(-2294.16 -1692.44)"/><path d="M2807.99 2664.27c-18.57-5.15-24.92-6.64-39.89-9.32-17.27-3.1-22.2-4.23-42.72-9.87l-10.27-2.83q-.42-.11-.43.23c0 .2-.27.4-.6.47-.52.1-.67-.05-1.21-1.26a13.4 13.4 0 0 1 1.83-13.78 13 13 0 0 1 5.1-3.64 4 4 0 0 0 1.28-.58c.08-.11 4.34.96 9.47 2.38 19.23 5.32 26.6 7.05 41.3 9.68 17.55 3.14 23.04 4.43 46.1 10.8 5.69 1.58 7.04 1.88 7.2 1.6.1-.18.45-.34.75-.34.44 0 .7.3 1.22 1.42a11.4 11.4 0 0 1 .67 8.27 12.7 12.7 0 0 1-3.4 6.15c-1.3 1.3-4.28 3.1-5.12 3.1-.19 0-.34.1-.34.24q-.02.23-.18.23c-.1-.01-4.95-1.34-10.76-2.95z" style="fill:var(--bldc-phase-2-color);stroke-width:2.3622;stroke-dasharray:none" transform="translate(-2294.16 -1692.44)"/><path d="M2815.24 2645.45c-18.76-5.23-26.4-7.02-41.18-9.67-18.07-3.23-21.33-4-48.5-11.47-3.85-1.06-4.3-1.13-4.92-.83l-.86.43c-.4.19-1.67-3.1-1.94-5q-.53-3.65 1.36-7.63c1.4-2.95 4.21-5.49 6.9-6.24.6-.17 1.05-.42.96-.56q-.1-.21.32-.1c.25.08 3.72 1.04 7.71 2.13 22.63 6.23 27.66 7.41 43.34 10.2 16.55 2.94 22 4.2 42.84 9.95 8.31 2.3 9.94 2.68 10.54 2.47l.77-.25c.25 0 1.37 3.18 1.58 4.48.28 1.74.2 2.8-.4 5.21-.9 3.6-3.53 6.89-6.64 8.28-.92.41-1.87.86-2.1.98a2 2 0 0 1-.5.21z" style="fill:var(--bldc-phase-2-color);stroke-width:2.3622;stroke-dasharray:none" transform="translate(-2294.16 -1692.44)"/><path d="M2822.17 2626.47c-19.67-5.45-28.13-7.42-43.9-10.21-14.33-2.54-20.03-3.86-38.96-9.04-9.48-2.59-12.2-3.2-12.73-2.92-1 .53-1.03.5-1.84-1.29-1.07-2.37-1.05-7.11.03-9.89 1-2.52 3.7-5.52 5.87-6.5.9-.42 1.89-.88 2.2-1.04.36-.2 3.97.64 10.58 2.46 19.74 5.43 24.99 6.64 41.79 9.69 16.1 2.92 22.29 4.37 44.17 10.41l7.9 2.19 1.13 2.28c.98 2 1.12 2.62 1.12 5.06 0 2.22-.17 3.12-.82 4.44a12.6 12.6 0 0 1-5.63 5.46c-1.03.47-1.96.96-2.05 1.08-.1.12-4.08-.86-8.86-2.18z" style="fill:var(--bldc-phase-2-color);stroke-width:2.3622;stroke-dasharray:none" transform="translate(-2294.16 -1692.44)"/><path d="M2829.64 2607.75c-19.34-5.46-28.24-7.57-43.84-10.38-15.11-2.73-22.6-4.44-38.9-8.88-10.94-2.98-13.66-3.61-14.3-3.32-.9.41-1.27.13-1.9-1.52a13.7 13.7 0 0 1 2.64-13.68c1.37-1.51 2.44-2.2 4.93-3.19l1.48-.58 9.28 2.58c16.8 4.68 26.31 6.94 37.74 8.99 12.1 2.16 17.88 3.3 23.95 4.7 6.6 1.54 31.24 8.2 32.22 8.72.35.19 1.1 1.3 1.65 2.48a9 9 0 0 1 1.01 4.78c0 2.24-.15 2.94-1.06 4.76a11.5 11.5 0 0 1-6.1 5.6c-1.04.4-2.08.7-2.3.68-.24-.01-3.16-.8-6.5-1.74z" style="fill:var(--bldc-phase-2-color);stroke-width:2.3622;stroke-dasharray:none" transform="translate(-2294.16 -1692.44)"/><path d="M2833.46 2587.98a410 410 0 0 0-46-10.56c-10.5-1.87-19.75-4.04-34.73-8.13-12.3-3.36-13.66-3.67-14.33-3.22-.71.47-.78.41-1.5-1.2a13.5 13.5 0 0 1-.31-9.06c1.29-4 3.8-6.7 7.6-8.2l1.5-.58 10.64 2.93c18.76 5.16 25.12 6.64 39.77 9.26 16.37 2.92 24.03 4.7 43.78 10.19 5.15 1.43 9.42 2.45 9.48 2.27.28-.8 1.36-.26 1.94.95 2.9 6.1-.6 14.71-6.94 17.09-1.05.39-2.02.7-2.15.68-.14-.01-4.08-1.1-8.75-2.42z" style="fill:var(--bldc-phase-2-color);stroke-width:2.3622;stroke-dasharray:none" transform="translate(-2294.16 -1692.44)"/><path d="M2839.7 2568.9c-18.57-5.22-26.98-7.18-43.05-10.05-15.31-2.73-23.55-4.68-44.06-10.4-4.1-1.14-7.53-1.95-7.63-1.8s-.45.37-.76.48c-.44.16-.74-.2-1.3-1.55-1.47-3.53-1.3-7.04.5-10.85a12.2 12.2 0 0 1 5.94-5.81l2.25-1.05 12.9 3.51c16.87 4.6 23.51 6.13 38.6 8.88 15.34 2.79 22.21 4.36 38.74 8.88 10.8 2.95 13.03 3.46 13.73 3.14.46-.2.89-.38.95-.38s.47.81.9 1.8c2 4.69.74 10.65-3.05 14.39-1.13 1.1-5.13 3.3-5.88 3.22-.15-.01-4.1-1.1-8.78-2.41z" style="fill:var(--bldc-phase-2-color);stroke-width:2.3622;stroke-dasharray:none" transform="translate(-2294.16 -1692.44)"/><path d="M2851.68 2551.4c-21.75-6.23-31.25-8.5-49.5-11.8-15.46-2.79-20.23-3.9-40.39-9.45-6.8-1.87-10.8-2.82-10.88-2.58-.07.21-.4.38-.74.38-.73 0-1.9-2.48-2.24-4.77-.27-1.8.5-5.72 1.53-7.72a13.4 13.4 0 0 1 5.64-5.55 12 12 0 0 1 2.6-1.05c.29 0 5.61 1.4 11.84 3.12 18.17 5 24.7 6.47 43.61 9.86 11 1.97 18.91 3.83 35 8.23 8.26 2.25 13.17 3.44 13.78 3.31 1.48-.3 2.24 1.76 2.24 6.04 0 3.15-.07 3.46-1.31 5.98-1.5 3.02-3.14 4.6-6.27 5.97-1.09.49-2.02.87-2.06.85z" style="fill:var(--bldc-phase-2-color);stroke-width:2.3622;stroke-dasharray:none" transform="translate(-2294.16 -1692.44)"/><path d="M2854.63 2531.36c-20.12-5.6-29.25-7.8-41.48-10-20.03-3.57-25.4-4.82-48.8-11.3l-7.15-1.97-.9-1.4c-1.87-2.87-2.14-7.68-.61-10.73 1.62-3.25 5.25-5.83 9.22-6.57a10 10 0 0 1 2.91-.15c.53.12 4.77 2.13 9.43 4.47a222 222 0 0 0 33.47 13.87c18.43 6.05 34.02 9.14 56.48 11.19l2.33.21.23 1.22c.33 1.75-.1 4.8-.9 6.38-1.4 2.71-3.32 4.41-6.6 5.8l-1.56.67zM3099.8 2412.37c-4.93-1.03-8.77-5.83-9.08-11.32l-.13-2.47 3.14-6.03c14.9-28.64 23.96-60.31 26.28-91.82l.24-3.17 1.62-.22c5.07-.67 10.16 2.68 11.91 7.84.5 1.47.47 1.63-2.05 10.7-5.16 18.57-7.11 27.15-10.53 46.16-1.88 10.47-4.18 20.23-8.3 35.21-3.11 11.37-3.5 12.55-4.41 13.28-1.95 1.56-5.98 2.41-8.7 1.84z" style="fill:var(--bldc-phase-2-color);stroke-width:2.3622;stroke-dasharray:none" transform="translate(-2294.16 -1692.44)"/><path d="M3119.81 2418.86c-4.15-1.19-7.54-4.06-8.99-7.62l-.76-1.88 2.25-8.13c5.68-20.53 7-26.23 10.13-43.36 2.8-15.29 4.42-22.34 8.96-38.87 2.66-9.65 3.5-13.23 3.29-13.82-.26-.72-.13-.87 1.31-1.51 3.46-1.53 8.13-1.06 11.84 1.18a11.7 11.7 0 0 1 4.8 5.68l.86 1.93-3.12 11.34c-5.16 18.82-6.45 24.35-9.07 39.06-2.9 16.22-4.8 24.39-10.35 44.48-1.32 4.77-2.29 8.75-2.15 8.85s.35.43.46.74c.17.44-.2.76-1.58 1.36-2.17.93-5.7 1.19-7.88.57z" style="fill:var(--bldc-phase-2-color);stroke-width:2.3622;stroke-dasharray:none" transform="translate(-2294.16 -1692.44)"/><path d="M3138.38 2424.75c-4-1.33-6.38-3.3-7.98-6.63l-1.22-2.55 3.32-12.1c5-18.23 6.3-23.88 9.21-40.22 2.64-14.83 4.47-22.55 10.54-44.43 1.08-3.91 1.77-6.99 1.58-7.05-.8-.27-.27-1.36.94-1.94 6.53-3.1 15.5.95 17.5 7.92.23.82-.34 3.34-2.8 12.33-5.18 18.91-6.36 24.03-9.22 39.94-2.87 15.97-3.85 20.24-9.07 39.34-2.83 10.36-3.25 12.23-2.94 13.12.36 1.02.32 1.06-1.27 1.77-2.04.91-6.55 1.17-8.59.5z" style="fill:var(--bldc-phase-2-color);stroke-width:2.3622;stroke-dasharray:none" transform="translate(-2294.16 -1692.44)"/><path d="M3158.48 2430.96c-4.31-.97-7.04-3.04-8.95-6.81l-1.23-2.42 3.76-13.8c4.3-15.72 6.23-24.19 8.73-38.26 2.7-15.12 4.02-20.82 9.4-40.42 2.02-7.32 3.01-11.49 2.77-11.57-.82-.27-.32-1.13 1.09-1.89 2.1-1.12 7.19-1.1 10.05.03 3.42 1.36 6.7 5.01 7.36 8.21.15.73-.46 3.46-2.06 9.2-5.24 18.79-7.3 27.63-10.1 43.38-2.54 14.36-3.9 20.21-9.04 39.04-2.72 9.95-3.24 12.25-2.91 12.79.56.89.02 1.47-2 2.11-2.5.8-4.55.93-6.87.4z" style="fill:var(--bldc-phase-2-color);stroke-width:2.3622;stroke-dasharray:none" transform="translate(-2294.16 -1692.44)"/><path d="M3177.43 2437.02q-6.21-1.59-8.85-7l-1.12-2.31 3.42-12.44c4.12-14.98 6.68-26.07 8.8-38.08 2.88-16.25 4.03-21.25 9.45-41.08l3.33-12.21 2.12-1.15c1.95-1.06 2.36-1.15 5.24-1.15 3.44 0 4.87.53 7.3 2.67 1.36 1.19 3.28 4.25 3.28 5.23 0 .33.15.6.33.6s-.05 1.37-.5 3.04l-3.58 13.13a341 341 0 0 0-7.53 32.78c-3.17 17.75-4.58 23.96-9.75 42.82-2.38 8.7-3.21 12.2-2.94 12.48.73.72.36 1.3-1.27 2.01-1.86.8-5.85 1.14-7.73.66z" style="fill:var(--bldc-phase-2-color);stroke-width:2.3622;stroke-dasharray:none" transform="translate(-2294.16 -1692.44)"/><path d="M3195.66 2442.77a12.9 12.9 0 0 1-8.06-6.97l-.99-2.09 3.4-12.32c3.97-14.44 6.37-24.57 8.09-34.19 3.45-19.36 5.58-28.67 11.16-48.76l2.36-8.5 2.42-1.22c2.15-1.08 2.7-1.21 5.03-1.19 2.1.03 2.96.21 4.35.93a13.7 13.7 0 0 1 5.68 6l1.04 2.1-1.55 5.53c-5.92 21.2-8.18 30.7-10.72 45.11-2.74 15.55-4.62 23.64-10.07 43.35-2.15 7.8-2.58 9.73-2.2 9.97.79.49-.1 1.44-1.99 2.1-2.01.72-5.94.8-7.95.15z" style="fill:var(--bldc-phase-2-color);stroke-width:2.3622;stroke-dasharray:none" transform="translate(-2294.16 -1692.44)"/><path d="M3216.66 2449.3c-4.74-.86-8.66-3.99-10.22-8.17l-.6-1.6 3.63-13.32c4.02-14.7 6.19-24 8.06-34.5 3.22-18.13 4.69-24.57 9.89-43.54 1.92-7.01 3.12-12 3.03-12.62-.14-.92 0-1.09 1.45-1.75 2.27-1.05 6.73-1.01 9.49.08a14 14 0 0 1 6.86 6.47l1.04 2.2-2.96 10.7c-5.07 18.27-6.8 25.78-9.7 42.11-2.51 14.17-4.21 21.44-9.4 40.23-1.98 7.13-2.8 10.66-2.55 10.82.81.5.1 1.53-1.48 2.11-1.7.63-5.1 1.03-6.54.77z" style="fill:var(--bldc-phase-2-color);stroke-width:2.3622;stroke-dasharray:none" transform="translate(-2294.16 -1692.44)"/><path d="M3234.01 2454.9c-3.97-1.29-7.37-4.41-8.5-7.82l-.52-1.56 3.63-13.27c3.97-14.5 6.1-23.63 8-34.29 3.25-18.17 5.23-26.77 10.87-47.19 2.01-7.3 2.32-8.74 1.92-9.14-.66-.65-.65-.66.95-1.48 6.05-3.08 14.67.26 17.29 6.7l.75 1.86-3.34 12.13c-4.93 17.94-6.51 24.85-9.17 40.07-2.38 13.59-4.6 23.05-10.2 43.22-1.22 4.39-2.1 8.06-1.98 8.15 1.64 1.2-1.37 2.82-5.53 3-1.64.08-3.19-.07-4.17-.38z" style="fill:var(--bldc-phase-2-color);stroke-width:2.3622;stroke-dasharray:none" transform="translate(-2294.16 -1692.44)"/><path d="M3253.8 2461.03a19 19 0 0 1-3.87-1.54c-1.9-1.11-4.39-3.81-4.7-5.1-.11-.49-.42-1.3-.67-1.8-.42-.84-.17-1.98 2.63-12.15 5.1-18.55 6.64-25.2 9.2-39.7 2.92-16.46 5.93-29.02 12.57-52.37.1-.38.04-.56-.16-.44s-.42-.07-.52-.43c-.26-1 2.48-2.18 5.53-2.39 5.88-.4 11.42 3.08 13.13 8.24l.55 1.67-2.06 7.41c-5.7 20.49-7.17 26.7-10.14 43.08-3.05 16.83-4.54 23.25-9.72 42.01-2.36 8.53-2.75 10.32-2.47 11.24.31 1.04.27 1.12-.93 1.64a17 17 0 0 1-5.25 1.23c-.48-.01-1.88-.28-3.12-.6z" style="fill:var(--bldc-phase-2-color);stroke-width:2.3622;stroke-dasharray:none" transform="translate(-2294.16 -1692.44)"/><path d="M3269.76 2465.97c-3-1.4-5.18-3.86-6.08-6.9-.44-1.5-.75-.16 3.93-17.2a380 380 0 0 0 8.05-35.72c3.01-16.68 4.14-21.53 9.87-42.33 1.76-6.38 2.82-9.66 3.23-9.97 2-1.52 3.74-2.04 6.86-2.04 2.6 0 3.38.13 4.63.8 3.45 1.83 5.99 5.52 6.66 9.66.32 1.93.18 2.6-2.94 14.7-4 15.48-5.22 20.94-7.49 33.66a364 364 0 0 1-6.58 30.72c-2.16 8.5-2.65 10-5.33 16.08-1.62 3.69-3.21 7-3.54 7.37-1.9 2.1-7.92 2.73-11.27 1.17zM2999.28 2076.24a8 8 0 0 1-1.74-.83c-.96-.8-14.74-7.48-20.4-9.9-22.31-9.55-48.24-16.11-70.97-17.96-2.67-.21-5.4-.5-6.07-.64l-1.22-.25.02-3.1c.02-3.54.39-4.5 2.7-7.02 1.4-1.53 4.95-3.55 6.22-3.55.34 0 5.18 1.26 10.76 2.8 18.56 5.12 25.85 6.78 44.17 10.05 4.4.78 11.26 2.18 15.27 3.1 8.58 1.97 32.73 8.55 33.38 9.08.9.75 2.2 4 2.42 6.06q.45 4.34-2.41 7.87c-2.8 3.44-8.75 5.55-12.13 4.3z" style="fill:var(--bldc-phase-2-color);stroke-width:2.3622;stroke-dasharray:none" transform="translate(-2294.16 -1692.44)"/><path d="M3001.8 2054.63c-19.22-5.32-27.38-7.21-43.38-10.06-14.3-2.54-20.53-3.98-38.71-8.98-7.95-2.18-12.49-3.27-13.12-3.15-.89.17-1.04.05-1.62-1.28-1.36-3.14-1.2-6.88.47-10.51a12 12 0 0 1 5.76-5.84l2.39-1.21 10 2.76c19.15 5.29 26.35 6.95 42.63 9.85 12.96 2.31 21.4 4.25 37.1 8.55 10.57 2.9 13.96 3.7 14.31 3.4.8-.66 1.43-.1 2.22 2 1.54 4.08.3 9.66-2.93 13.24-.7.77-2.32 1.94-3.6 2.59l-2.33 1.18z" style="fill:var(--bldc-phase-2-color);stroke-width:2.3622;stroke-dasharray:none" transform="translate(-2294.16 -1692.44)"/><path d="M3010.48 2036.26c-18.83-5.38-28.34-7.63-44.6-10.58-15.5-2.82-21.53-4.19-38.16-8.71-11.44-3.11-14.32-3.79-14.83-3.47-.9.56-.9.56-1.74-1.08-1.15-2.23-1.28-6.36-.3-9.26 1.35-4.01 3.28-6.15 7.02-7.8l1.94-.86 8.1 2.24c20 5.54 28.15 7.44 43.7 10.2 13.52 2.41 21.73 4.3 37.99 8.73a1737 1737 0 0 0 14 3.78c.06 0 .01-.16-.1-.35-.13-.2.16-.35.64-.35.73 0 .98.3 1.62 2 1.05 2.79.86 7.05-.43 9.87-1.65 3.6-5.13 6.54-8.28 7-.8.12-2.95-.33-6.57-1.36z" style="fill:var(--bldc-phase-2-color);stroke-width:2.3622;stroke-dasharray:none" transform="translate(-2294.16 -1692.44)"/><path d="M3016.73 2017.16c-19.13-5.43-29.55-7.9-44.42-10.56-16.5-2.95-21.87-4.18-40.1-9.2-10.25-2.8-12.33-3.28-13.26-3-1.08.32-1.1.3-1.86-1.44a12 12 0 0 1-.53-7.87c1.08-4.24 3.38-7.08 7.06-8.75l2.22-1 11.34 3.13c18.46 5.1 25.4 6.67 43.62 9.91 10.66 1.9 19.6 3.99 34.74 8.12 7.62 2.07 13.93 3.66 14.03 3.53s.43-.34.75-.45c.43-.17.75.19 1.3 1.48 2.03 4.7.79 10.67-3 14.45-1.2 1.2-5.15 3.29-6.07 3.2-.25-.01-2.87-.72-5.82-1.55z" style="fill:var(--bldc-phase-2-color);stroke-width:2.3622;stroke-dasharray:none" transform="translate(-2294.16 -1692.44)"/><path d="M3019.16 1997.01c-18.53-5.19-26.69-7.06-45.03-10.34-4.82-.86-11.8-2.27-15.53-3.13a985 985 0 0 1-31.68-8.39c-1.74-.5-1.85-.61-2.95-2.84-1-2.04-1.13-2.64-1.13-5.1.01-2.4.15-3.02 1.03-4.63a13 13 0 0 1 6.32-5.6l1.94-.73 9.4 2.6c19.5 5.4 25.81 6.86 41.87 9.75 16.08 2.89 22.13 4.3 42 9.78 8.14 2.25 9.68 2.58 10.52 2.26.96-.36 1.02-.32 1.75 1.25.6 1.31.75 2.28.75 4.93 0 2.97-.1 3.53-1.08 5.57-1.5 3.19-2.93 4.66-5.86 6.07-1.38.66-2.65 1.19-2.82 1.17s-4.45-1.2-9.5-2.62z" style="fill:var(--bldc-phase-2-color);stroke-width:2.3622;stroke-dasharray:none" transform="translate(-2294.16 -1692.44)"/><path d="M3021.58 1976.9a361 361 0 0 0-38.35-8.8c-12.17-2.21-16.14-3.05-24.97-5.26-7-1.76-25.46-6.8-26.48-7.25-2.2-.95-3.65-7.6-2.38-10.92a12 12 0 0 1 7.32-7.02c1.53-.52 1.57-.51 11.18 2.15 19.1 5.3 25.85 6.85 42.86 9.89 12.78 2.28 20.76 4.12 37.06 8.57 10.55 2.87 13.49 3.56 13.97 3.26.97-.61 1.2-.47 1.83 1.1 2.01 5.01.72 11.3-3 14.66-1.14 1.03-5.5 3.43-5.92 3.25z" style="fill:var(--bldc-phase-2-color);stroke-width:2.3622;stroke-dasharray:none" transform="translate(-2294.16 -1692.44)"/><path d="M3028.53 1957.98c-14.63-4.07-25.77-6.65-37.84-8.79-16.15-2.85-23-4.43-42.36-9.76-6.84-1.89-11.15-2.91-11.68-2.78-.73.18-.92.01-1.58-1.45-1.6-3.53-.73-9.15 1.95-12.69 1.26-1.66 4.05-3.67 5.5-3.96.53-.1.97-.32.97-.47 0-.3.26-.23 16.16 4.12 12.78 3.5 21.6 5.53 32.78 7.53 17.7 3.16 25.81 5.03 45.22 10.4 7.69 2.12 9.75 2.58 10.15 2.25.88-.72 1.5-.09 2.23 2.29 1.1 3.6.85 6.55-.9 10.03a12 12 0 0 1-5.82 5.6 38 38 0 0 1-2.43 1.14c-.02-.02-5.58-1.58-12.35-3.46z" style="fill:var(--bldc-phase-2-color);stroke-width:2.3622;stroke-dasharray:none" transform="translate(-2294.16 -1692.44)"/><path d="M3034.77 1938.86c-14.49-4-24.6-6.4-34.18-8.1-19.77-3.54-26.46-5.05-45.47-10.28-9-2.47-11.58-3.06-12.06-2.76-.86.53-.86.53-1.74-1.1-.66-1.25-.78-2-.78-4.95 0-3.17.1-3.66 1.09-5.78a12 12 0 0 1 6.07-6.13l2.2-1.05 8.69 2.4c20.05 5.57 26.22 7.01 43 10.06 16.54 3 22.38 4.36 42.5 9.92 7.67 2.12 9.57 2.54 9.8 2.16.52-.81 1.46.13 2.17 2.16.94 2.7.7 6.7-.6 9.56a13.3 13.3 0 0 1-5.76 6.03l-2.08 1c-.3.15-5.78-1.2-12.85-3.14z" style="fill:var(--bldc-phase-2-color);stroke-width:2.3622;stroke-dasharray:none" transform="translate(-2294.16 -1692.44)"/><path d="M3040.5 1919.65a376 376 0 0 0-39.05-9c-17.34-3.15-21.93-4.25-48.73-11.65-2.15-.6-2.91-.68-3.57-.38-.46.21-.89.38-.95.38s-.48-.82-.93-1.82c-1.13-2.5-1.13-6.83 0-9.72a13.8 13.8 0 0 1 6.46-6.85l2.2-1.05 9.31 2.58c19.29 5.33 26 6.92 38.84 9.22 18.04 3.23 27.8 5.46 44.76 10.26 10.12 2.86 9.95 2.82 11.37 2.43.88-.24 1-.15 1.65 1.3 2 4.54.72 10.72-2.97 14.3-1.56 1.51-4 2.87-5.65 3.13-.53.1-5.99-1.25-12.73-3.13z" style="fill:var(--bldc-phase-2-color);stroke-width:2.3622;stroke-dasharray:none" transform="translate(-2294.16 -1692.44)"/><path d="M3050.57 1901.6c-17.44-4.93-27.85-7.38-42.02-9.89-15.52-2.75-24.15-4.75-44.41-10.34l-8.68-2.4-1.21-2.35c-1.1-2.14-1.22-2.63-1.2-5.18 0-2.43.14-3.05 1-4.64a13 13 0 0 1 10.04-6.58c1.87-.14 3.56.2 13.6 2.83 14.3 3.73 20.98 5.2 35.43 7.83a367 367 0 0 1 28.77 6.15c3.44.88 6.64 1.63 7.12 1.66.83.07 11.35 4.45 15.27 6.36 1.66.82 2.04 1.2 2.94 3.01.88 1.76 1.04 2.49 1.04 4.7 0 4.45-2.3 8.14-6.25 10.06-2.47 1.2-3.04 1.15-11.44-1.23zM2468.47 2213.2c-3.81-1.84-6.54-5.85-7-10.3-.15-1.4.22-3.3 1.92-9.73 4.64-17.64 6.21-24.53 8.38-36.79 1.87-10.61 2.9-15.7 4.73-23.6 3.08-13.2 4.44-17.67 7.56-24.78 1.62-3.68 3.23-6.92 3.57-7.18 1.4-1.06 4.32-1.88 6.7-1.88 2.08 0 2.72.16 4.93 1.3 2.16 1.1 2.75 1.62 3.97 3.43.79 1.17 1.54 2.7 1.67 3.4.19 1-.48 3.86-3.25 14.03-4.22 15.42-6.37 24.79-8.7 37.88a346 346 0 0 1-5.42 25.95c-2.7 10.54-7.13 26.28-7.5 26.73-1.03 1.24-3.91 2.28-6.7 2.42-2.5.12-2.97.04-4.86-.88z" style="fill:var(--bldc-phase-2-color);stroke-width:2.3622;stroke-dasharray:none" transform="translate(-2294.16 -1692.44)"/><path d="M2490 2220.28c-3.61-1.14-6.5-3.51-7.81-6.39-.41-.9-.87-1.87-1.02-2.16-.18-.33.56-3.54 1.94-8.5 5.3-18.99 7.73-29.58 11.05-48.24 1.77-9.9 3.9-18.99 7.9-33.5 1.92-6.96 3.5-12.9 3.5-13.18a7 7 0 0 0-.22-1.43c-.2-.8-.08-.97 1.06-1.48 6.03-2.66 14.14.23 16.75 5.96.4.9.86 1.87 1 2.15.16.31-1.19 5.81-3.31 13.54-4.25 15.49-6.4 24.85-8.8 38.18-2.96 16.55-4.37 22.63-9.73 42-2.27 8.2-2.76 10.35-2.44 10.86.55.87.28 1.14-1.9 1.96-2.2.82-5.78.93-7.97.23z" style="fill:var(--bldc-phase-2-color);stroke-width:2.3622;stroke-dasharray:none" transform="translate(-2294.16 -1692.44)"/><path d="M2510.4 2226.67a16 16 0 0 1-5.99-2.77 14 14 0 0 1-3.66-5.21c-.14-.48-.37-.95-.52-1.05-.14-.1.83-4.07 2.15-8.85 5.61-20.31 7.02-26.34 10.02-42.83 3.03-16.7 3.8-20.09 9.05-39.33 2.87-10.54 3.4-12.87 3.08-13.48-.52-.97.17-1.49 3.03-2.27 5.58-1.52 12.28 1.38 14.62 6.33.44.92.93 1.94 1.1 2.26.21.39-.13 2.14-1.03 5.38-6.61 23.69-7.95 29.36-11.3 47.87-2.77 15.36-4.04 20.79-9.6 40.92-1.77 6.39-2.64 10.1-2.4 10.18.2.07.38.41.38.75 0 1.43-5.71 2.77-8.93 2.1z" style="fill:var(--bldc-phase-2-color);stroke-width:2.3622;stroke-dasharray:none" transform="translate(-2294.16 -1692.44)"/><path d="M2527.76 2232.15c-4.05-1.49-6.75-4.07-7.91-7.56l-.56-1.69 2.95-10.7c5.21-18.96 6.35-23.86 9.25-39.85a379 379 0 0 1 8.88-38.84c1.99-7.27 3.55-13.46 3.48-13.75-.08-.28-.25-.77-.38-1.08-.27-.66 1.6-1.53 4.42-2.06 4.97-.94 11.33 2.14 13.39 6.5.43.92.94 1.95 1.12 2.3.25.45-.44 3.43-2.61 11.32-4.9 17.8-6.66 25.18-8.7 36.65-3.33 18.7-5.23 27-10.53 46.16-1.7 6.15-2.72 10.42-2.6 10.97.15.8 0 .98-1.33 1.53-2.44 1-6.3 1.04-8.87.1z" style="fill:var(--bldc-phase-2-color);stroke-width:2.3622;stroke-dasharray:none" transform="translate(-2294.16 -1692.44)"/><path d="M2546.2 2237.86a12 12 0 0 1-5.86-4.75c-2.22-3.5-2.27-2.85 1.06-14.9 5.12-18.58 6.82-26.06 10.03-44.13 2.22-12.46 4.4-21.39 11.05-45.3.74-2.67.77-3.05.31-3.74-.49-.74-.44-.8 1.19-1.52a13.5 13.5 0 0 1 9.06-.31c4 1.29 6.7 3.8 8.2 7.6l.59 1.51-2.49 8.9c-5.16 18.52-7.36 28.12-10.55 46.05-2.13 12-6.2 28.67-11.46 46.93-.5 1.71-.63 1.85-2.69 2.87-2.84 1.4-5.94 1.69-8.44.79z" style="fill:var(--bldc-phase-2-color);stroke-width:2.3622;stroke-dasharray:none" transform="translate(-2294.16 -1692.44)"/><path d="M2564.88 2243.8c-2.23-.8-5.1-3.6-6.35-6.23l-1.06-2.23 2.43-8.76c6.01-21.73 7.3-27.28 10.29-44.34 2.26-12.92 7.03-32.62 11.8-48.75.28-.94.38-1.8.23-1.9-.16-.11-.39-.46-.5-.78-.16-.43.21-.76 1.59-1.37 1.42-.63 2.4-.8 4.74-.79 5.93.02 10.34 2.95 12.3 8.15l.6 1.6-2.95 10.72c-5.24 19.04-6.52 24.59-9.43 40.76-2.5 13.87-4.45 22.4-8.85 38.6-3.9 14.37-3.68 13.88-7.1 15.17-2.3.85-5.55.92-7.74.14z" style="fill:var(--bldc-phase-2-color);stroke-width:2.3622;stroke-dasharray:none" transform="translate(-2294.16 -1692.44)"/><path d="M2585.8 2250.48q-5.87-1.85-8.18-6.97l-.98-2.17 1.72-6.2c6.37-22.9 7.55-27.9 10.9-46.48 2.79-15.36 3.94-20.27 9.44-40.25 1.91-6.92 2.83-10.8 2.58-10.88-.2-.07-.38-.41-.38-.76 0-1.16 3.45-2.16 6.94-2.02 3.55.15 6.29 1.26 8.63 3.51 1.4 1.36 3.52 5.01 3.52 6.1 0 .26-1.4 5.57-3.12 11.8-4.91 17.88-6.7 25.71-9.56 42.05-2.2 12.52-3.96 20-9.25 39.18-2.32 8.41-2.75 10.33-2.4 10.87.56.9.3 1.16-1.9 1.99-2.2.82-5.77.92-7.96.23z" style="fill:var(--bldc-phase-2-color);stroke-width:2.3622;stroke-dasharray:none" transform="translate(-2294.16 -1692.44)"/><path d="M2606.17 2256.86a12.9 12.9 0 0 1-9.21-6.92l-1.21-2.39 1.72-6.19c5.92-21.34 7.9-29.69 10.4-43.67 3.27-18.29 4.06-21.72 9.9-42.95 2.53-9.2 2.87-10.76 2.49-11.39-.38-.62-.35-.8.24-1.23 2.11-1.56 6.63-1.94 9.94-.83 3.9 1.32 6.17 3.27 7.86 6.8l1.01 2.11-1.85 6.73c-6.14 22.23-7.48 27.94-10.67 45.45-2.76 15.16-4.06 20.78-8.74 37.95-2.63 9.66-3.56 13.6-3.3 13.87.7.7.38 1.2-1.27 1.9a14 14 0 0 1-7.31.76z" style="fill:var(--bldc-phase-2-color);stroke-width:2.3622;stroke-dasharray:none" transform="translate(-2294.16 -1692.44)"/><path d="M2624.72 2262.75a16 16 0 0 1-6.07-3.22c-1.3-1.23-3.17-4.27-3.17-5.15 0-.32-.13-.63-.3-.7-.15-.06.87-4.25 2.28-9.3 5.32-19.13 7.32-27.87 10.68-46.7 2.06-11.54 3.89-19.21 8.74-36.78 2.34-8.5 2.89-10.87 2.58-11.36-.62-.99-.48-1.19 1.4-2 2.5-1.07 4.9-1.25 7.6-.56 4.3 1.1 7.25 3.5 9.1 7.44l.88 1.85-3.57 13.07c-4.54 16.62-5.94 22.71-8.68 37.72-3.21 17.64-4.24 22.1-9.57 41.48-2 7.25-3.04 11.6-2.91 12.19.18.8.04.97-1.3 1.52-1.75.72-5.78.98-7.7.5z" style="fill:var(--bldc-phase-2-color);stroke-width:2.3622;stroke-dasharray:none" transform="translate(-2294.16 -1692.44)"/><path d="M2642.38 2268.2a10.4 10.4 0 0 1-4.91-3.06 12.4 12.4 0 0 1-3.02-5.17c-.14-.6 1-5.35 3.4-14.1 4.27-15.67 6.1-23.66 8.7-38.12 2.83-15.79 4.48-22.8 10.27-43.73 1.57-5.69 2.4-8.16 2.9-8.59 1.35-1.14 4.4-2.06 6.9-2.06 1.96 0 2.76.19 4.57 1.08 1.2.6 2.7 1.65 3.31 2.36a15 15 0 0 1 3.35 8.02c.15 2.26.11 2.39-1.8 5.96a238 238 0 0 0-25.65 77.4c-1.03 7.07-1.95 15.55-1.95 18.02 0 .95-.17 1.83-.37 1.95-.75.46-4.35.5-5.7.04z" style="fill:var(--bldc-phase-2-color);stroke-width:2.3622;stroke-dasharray:none" transform="translate(-2294.16 -1692.44)"/><path d="M2484.01 2429.68c-1.94-.75-5.17-3.45-6.29-5.27-.37-.61-2.1-6.26-3.85-12.56-4.46-16.1-6.31-21.9-12.14-38.01a395 395 0 0 1-9.04-28.77c-1.4-5.17-1.8-7.36-2.48-13.53-.79-7.28-.79-7.37-.13-8.59 1-1.85 3.13-3.82 5.27-4.87 1.55-.75 2.42-.94 4.57-.96 2.26-.02 2.95.12 4.63.97 3.8 1.92 3.78 1.88 6.91 13.95 4.68 18.05 6.96 25.44 12.87 41.79 4.9 13.58 6.43 18.71 12.72 42.7 1.4 5.3 1.63 6.6 1.34 7.47-.58 1.7-4.31 5.17-6.28 5.84-2.32.78-5.82.72-8.1-.16z" style="fill:var(--bldc-phase-3-color);stroke-width:2.3622;stroke-dasharray:none" transform="translate(-2294.16 -1692.44)"/><path d="M2504.49 2425.62c-2.65-.95-5.23-2.8-5.62-4.05-.18-.58-1.05-3.86-1.94-7.3-5.05-19.65-8.15-29.73-14.67-47.73a340 340 0 0 1-4.73-14.32c-2.13-7.04-8.18-29.68-8.18-30.6 0-.23-.4-.79-.87-1.23-.48-.45-.87-1-.87-1.23 0-.9 2.89-3.64 4.88-4.63 5.32-2.66 10.8-2.14 14.61 1.39 1.24 1.14 1.33 1.42 3.94 11.58 4.49 17.44 7.37 26.86 12.76 41.65 2.7 7.4 5.86 17.14 7.68 23.6 1.56 5.58 6.8 25.6 6.8 26 0 .12.23.21.5.21q1.46.01-.1 2.12c-3.01 4.1-9.56 6.2-14.2 4.54z" style="fill:var(--bldc-phase-3-color);stroke-width:2.3622;stroke-dasharray:none" transform="translate(-2294.16 -1692.44)"/><path d="M2523.39 2421.06c-.92-.36-2.25-1.1-2.95-1.64a5 5 0 0 0-1.48-.91c-.11.04-.49-1.06-.84-2.43-6.04-23.77-8.8-33.1-14.4-48.66-5.66-15.71-7.58-22.02-12.53-41.11-2.04-7.9-2.71-10.01-3.35-10.56l-.78-.69.91-1.24c2.54-3.44 6.34-5.24 11.07-5.24 2.16 0 2.8.16 4.88 1.22 3.6 1.83 3.73 2 4.8 6.09 4.4 16.87 6.37 24.06 8.02 29.38 2 6.43 2.8 8.76 7.36 21.45 4.32 12.01 7.08 21.44 12.77 43.57q.93 3.63 1.63 4.2.69.55.48 1.22c-.28.89-2.5 3.16-4.07 4.14-3 1.9-8.32 2.46-11.52 1.2z" style="fill:var(--bldc-phase-3-color);stroke-width:2.3622;stroke-dasharray:none" transform="translate(-2294.16 -1692.44)"/><path d="M2543.7 2416.94a19 19 0 0 1-3.64-1.9l-1.81-1.25-1-3.92c-5.64-22.15-8.5-31.74-13.9-46.7-5.62-15.58-7.66-22.33-13.26-43.91-1.22-4.73-2.2-7.9-2.46-7.9-.86 0-.83-.78.1-2.11 2.16-3.13 6-4.93 10.56-4.98 2.5-.02 3.24.11 4.86.89 1.05.5 2.48 1.43 3.17 2.08 1.24 1.14 1.33 1.43 3.94 11.58 4.63 18.05 7.14 26.2 13.37 43.4 4.26 11.76 7.1 21.36 12.3 41.64 1.08 4.2 1.82 6.43 2.25 6.8.62.53.6.6-.45 1.96-3.07 3.98-9.48 5.95-14.03 4.32z" style="fill:var(--bldc-phase-3-color);stroke-width:2.3622;stroke-dasharray:none" transform="translate(-2294.16 -1692.44)"/><path d="M2563.36 2412.58a23 23 0 0 1-4.88-2.75q-.6-.48-3.4-11.2c-5.03-19.18-6.84-25.13-12.13-39.84-5.7-15.82-8.3-24.47-13.75-45.82-1-3.9-1.52-5.35-2.14-5.93l-.81-.75 1.2-1.58c2.31-3.03 6.16-4.8 10.42-4.8 3.01 0 4.78.56 7.28 2.3l1.84 1.3 1.84 7.13c5.25 20.4 7.83 29.03 12.67 42.37 5.7 15.7 8.1 23.63 13.99 46.25l1.69 6.5-.83 1.49c-2.07 3.66-5.6 5.82-9.47 5.8a14 14 0 0 1-3.52-.47z" style="fill:var(--bldc-phase-3-color);stroke-width:2.3622;stroke-dasharray:none" transform="translate(-2294.16 -1692.44)"/><path d="M2583.3 2408.41a19 19 0 0 1-5.16-2.9c-.51-.44-1.17-2.39-2.37-7.03-5.44-21.03-7.98-29.58-12.38-41.68-6.3-17.29-8.49-24.5-14.38-47.35-1.21-4.67-1.8-6.39-2.34-6.8l-.73-.57.77-1.25c2.56-4.13 9.13-6.41 14.17-4.91 1.36.4 4.1 1.94 5.59 3.13.06.05 1.2 4.28 2.53 9.41 5.12 19.72 7.18 26.54 12.1 40.2 5.85 16.2 7.58 21.8 12.56 40.8l3.14 11.97-.78 1.48c-1 1.9-3.41 4.12-5.45 5.02-2.02.9-5.35 1.11-7.28.48z" style="fill:var(--bldc-phase-3-color);stroke-width:2.3622;stroke-dasharray:none" transform="translate(-2294.16 -1692.44)"/><path d="M2601.83 2403.72a17 17 0 0 1-3.18-1.83c-1.37-1.03-1.6-1.42-2.22-3.75-.39-1.43-1.96-7.41-3.5-13.28a347 347 0 0 0-10.57-34.19c-5.6-15.48-7.43-21.45-12.36-40.25-2.45-9.37-3.16-11.65-3.8-12.17l-.78-.63 1.18-1.55c2.37-3.12 6.23-4.9 10.6-4.88 2.82 0 4.71.63 7.15 2.33l1.83 1.28 3.08 11.84c4.11 15.82 7.01 25.35 11.58 38.04 5.94 16.51 7.83 22.7 12.73 41.66 2 7.73 2.8 10.35 3.32 10.71 1 .7.84 1.19-1.05 3.26-2.46 2.7-5.1 3.83-9.22 3.97-2.46.09-3.47-.03-4.79-.56z" style="fill:var(--bldc-phase-3-color);stroke-width:2.3622;stroke-dasharray:none" transform="translate(-2294.16 -1692.44)"/><path d="M2622.52 2399.74a19 19 0 0 1-5.15-2.9c-.5-.43-1.15-2.28-2.2-6.34-5.78-22.27-8-29.7-13.22-44.23-5.87-16.31-7.7-22.28-12.68-41.5-2.09-8.04-2.82-10.37-3.4-10.82l-.73-.57.96-1.44c1.83-2.77 5.48-4.71 9.54-5.1 2.95-.27 5.4.4 8.12 2.2 1.91 1.29 1.98 1.4 2.66 3.93l3.49 13.27c3.62 13.78 6.1 21.8 10.55 34.15 4.03 11.19 6.1 17.42 8.16 24.6 1.34 4.67 7.33 27.38 7.33 27.79 0 .1.14.1.31 0s.5.04.73.32c.33.4.27.71-.32 1.54a14.7 14.7 0 0 1-5.82 4.54c-2.48.93-6.41 1.2-8.33.56z" style="fill:var(--bldc-phase-3-color);stroke-width:2.3622;stroke-dasharray:none" transform="translate(-2294.16 -1692.44)"/><path d="M2641.05 2395.04a15 15 0 0 1-2.92-1.65l-1.55-1.18c-.16-.1-1.68-5.5-3.37-11.97-4.75-18.16-6.64-24.4-11.49-37.8-5.88-16.29-7.98-23.2-13.66-45.08-1.47-5.65-2.04-7.34-2.61-7.74-.4-.28-.73-.65-.73-.81s.77-1.15 1.72-2.18a12 12 0 0 1 3.9-2.9c1.97-.9 2.54-1 5.83-1 3.91 0 4.39.14 7.66 2.35l1.58 1.08 2.02 7.83c5.02 19.47 7.65 28.29 12.07 40.45 6.25 17.17 8.54 24.73 14.32 47.21.89 3.44 1.91 6.66 2.28 7.18l.66.92-1.57 1.75c-1 1.12-2.41 2.17-3.86 2.88-1.99.98-2.7 1.14-5.45 1.23-2.5.08-3.5-.04-4.83-.57z" style="fill:var(--bldc-phase-3-color);stroke-width:2.3622;stroke-dasharray:none" transform="translate(-2294.16 -1692.44)"/><path d="M2661.96 2391.09a17 17 0 0 1-5.38-2.93c-.54-.47-1.3-2.87-3.07-9.64-5.18-19.93-7.12-26.35-12-39.91-6-16.59-8.87-26.1-14.1-46.58l-1.7-6.67.68-1.26a13 13 0 0 1 5.13-4.91c1.55-.82 2.26-.96 4.6-.97 3.4-.01 5.83 1 8.49 3.47 2.83 2.65 3.03 3.36 3.48 12.14 1.61 31.66 8.7 60.53 21.78 88.86l2.57 5.55-.98.79a11 11 0 0 1-9.5 2.06zM2924.3 2717.09a12 12 0 0 1-4.79-5.03c-.62-1.28-.87-2.43-.96-4.6-.12-2.7-.05-3.04.99-5.09 1.76-3.48 2.1-3.67 9.37-5.53 19.57-4.99 29.12-7.84 43.03-12.86 16.55-5.97 23.72-8.14 45.44-13.75l7.08-1.82 1.51.8a11.8 11.8 0 0 1 5.86 8.38c.63 4.33-2.92 10.62-6.94 12.3-.63.27-5.72 1.74-11.33 3.29-16.36 4.5-21.19 6.04-38.49 12.25-8.88 3.2-20.2 6.77-27.76 8.77-2.01.53-3.73 1.08-3.82 1.22-.16.23-4.81.88-12.33 1.71l-4.33.5c-.79.1-1.69-.1-2.54-.54z" style="fill:var(--bldc-phase-3-color);stroke-width:2.3622;stroke-dasharray:none" transform="translate(-2294.16 -1692.44)"/><path d="M2918.56 2698.2c-4.33-3.9-5.67-10.89-3-15.73 1.9-3.47 1.4-3.23 13.95-6.52 18.8-4.91 25.27-6.91 42.82-13.26 10.16-3.67 19.85-6.6 34.4-10.4 10.81-2.83 13.2-3.56 13.73-4.22l.64-.8 1.97 1.81a12.4 12.4 0 0 1 4.32 9.1c.14 2.41.04 3.22-.6 4.91a13 13 0 0 1-1.77 3.17c-.55.63-1 1.29-1 1.46s-2.93 1.06-6.51 2c-22.14 5.73-28.53 7.63-43.13 12.86-17.35 6.21-22.68 7.86-40.79 12.55-9.2 2.38-11.63 3.13-12.35 3.82l-.9.85z" style="fill:var(--bldc-phase-3-color);stroke-width:2.3622;stroke-dasharray:none" transform="translate(-2294.16 -1692.44)"/><path d="M2914.8 2678.95c-1.6-1.17-2.86-2.88-4-5.39-.64-1.4-.79-2.36-.8-5.03 0-2.95.1-3.5.97-5.2 1.92-3.76 2.08-3.86 9.26-5.7 20.52-5.26 28.66-7.7 43.04-12.87 16.41-5.9 21.28-7.4 40.23-12.37 9.36-2.45 12.06-3.28 12.53-3.86l.6-.73 1.03.74a15 15 0 0 1 4.3 5.08c.35.8.82 2.54 1.04 3.87.62 3.8-.41 7.1-3.21 10.25-.7.8-2.34 1.3-12.61 3.96-15.13 3.9-25.06 6.91-36.97 11.22-16.43 5.93-23.76 8.16-45.35 13.77-6.24 1.62-7.73 2.12-7.87 2.64-.23.88-.55.83-2.19-.38z" style="fill:var(--bldc-phase-3-color);stroke-width:2.3622;stroke-dasharray:none" transform="translate(-2294.16 -1692.44)"/><path d="M2910.55 2659.45c-3.25-2.39-5.59-7.9-5.06-11.91a13.4 13.4 0 0 1 2.51-6.07c.52-.67.92-1.31.89-1.42s2.85-.94 6.42-1.87c22.15-5.74 29.88-8.05 43.59-13.01 15.68-5.69 22.46-7.77 40.82-12.51 6.49-1.68 11.32-3.11 11.9-3.52.96-.7.96-.7 1.95.01 1.6 1.14 3.2 3.14 4.15 5.22.76 1.63.9 2.42.9 5.22.01 2.92-.1 3.51-.94 5.2-1.85 3.67-2.2 3.99-5.47 4.84-25.72 6.67-32.93 8.8-46.49 13.72-15.81 5.74-22.8 7.9-41.32 12.7-9.21 2.4-11.05 2.98-11.63 3.69l-.7.84z" style="fill:var(--bldc-phase-3-color);stroke-width:2.3622;stroke-dasharray:none" transform="translate(-2294.16 -1692.44)"/><path d="M2906.08 2639.74c-4.46-3.23-6.26-10.7-3.8-15.69 1.88-3.79 1.44-3.58 15.38-7.22 15.4-4.02 24.95-6.93 37.28-11.4 15.8-5.73 20.76-7.25 40-12.28l12.18-3.18 1.53.81c1.7.91 3.9 3.22 4.75 5.02 1.86 3.92 1 8.9-2.16 12.55-.83.96-1.56 1.24-6.66 2.54-20.29 5.18-29.56 7.94-43.22 12.87-11.41 4.11-19.38 6.74-26.72 8.8-5.26 1.47-25.6 6.81-25.96 6.81-.1 0-.25.32-.35.7-.24.92-.58.88-2.25-.33z" style="fill:var(--bldc-phase-3-color);stroke-width:2.3622;stroke-dasharray:none" transform="translate(-2294.16 -1692.44)"/><path d="M2901.92 2620.3c-3.18-2.3-5.03-6.16-5.07-10.6-.02-3.03.65-5.06 2.48-7.45.52-.68.91-1.31.88-1.41s4.97-1.49 11.11-3.08c18.9-4.92 26.4-7.24 44.7-13.86 8.95-3.24 16.19-5.47 27.38-8.44l14.23-3.77 5.04-1.33 1.68.91a10.9 10.9 0 0 1 4.61 14.33c-2.03 4.14-1.3 3.75-12.2 6.57-19.11 4.96-27.6 7.57-44.08 13.54-11.88 4.31-20.78 6.97-38.87 11.64-7.58 1.95-9.14 2.46-9.72 3.17l-.7.85z" style="fill:var(--bldc-phase-3-color);stroke-width:2.3622;stroke-dasharray:none" transform="translate(-2294.16 -1692.44)"/><path d="M2897.38 2600.5c-4.48-3.25-6.27-10.61-3.8-15.62 1.73-3.5 2.31-3.88 8.13-5.36 21.35-5.46 30.05-8.06 45.77-13.73 15.28-5.5 20.3-7.03 39.91-12.15 8.26-2.15 10.81-2.94 11.19-3.48.26-.38.62-.69.78-.69s1.15.78 2.18 1.72c5.1 4.67 5.65 12.75 1.2 17.77-1.08 1.23-1.35 1.33-10.14 3.59-11.67 3-19.85 5.28-26.55 7.4-5.06 1.62-7.16 2.35-20.41 7.13-9.9 3.57-20.05 6.52-40.74 11.85-4.02 1.04-5.13 1.45-5.26 1.96-.23.88-.59.82-2.26-.4z" style="fill:var(--bldc-phase-3-color);stroke-width:2.3622;stroke-dasharray:none" transform="translate(-2294.16 -1692.44)"/><path d="M2893.24 2581.08c-2.56-1.85-4.3-4.79-4.94-8.36a10.8 10.8 0 0 1 1.06-7.45c1.89-3.85 1.56-3.68 12.19-6.44 19.93-5.2 25.62-6.92 41.58-12.65 15.51-5.57 23.02-7.82 44.1-13.21 4.77-1.22 6.56-1.83 7-2.36.52-.66.65-.68 1.5-.22 1.55.83 3.9 3.72 4.73 5.82.6 1.53.8 2.7.8 5.1.02 2.74-.1 3.37-.94 5.04-2.08 4.14-1.6 3.86-10.15 6.06-20.66 5.34-28.59 7.75-45.12 13.72-13.36 4.82-19.63 6.72-37.14 11.28-13.64 3.55-12.72 3.28-12.5 3.64.09.15-.04.45-.3.66-.35.3-.8.15-1.87-.63z" style="fill:var(--bldc-phase-3-color);stroke-width:2.3622;stroke-dasharray:none" transform="translate(-2294.16 -1692.44)"/><path d="M2887.8 2560.57a13 13 0 0 1-2.84-3.9c-.87-1.91-.99-2.56-1-5.63 0-3.73.14-4.18 2.38-7.55 1.25-1.87.61-1.62 11.5-4.43 18.05-4.66 25.67-6.98 40.96-12.5a355 355 0 0 1 34.8-10.77l13.35-3.51c1.47-.4 2.85-.93 3.08-1.2.64-.78 1.27-.57 2.93.95 3.97 3.66 5.23 10.4 2.82 15.1-1.92 3.74-1.51 3.54-14.34 6.87-18.18 4.7-23.93 6.47-40.32 12.39-14.32 5.17-20.15 6.9-44.9 13.34-3.95 1.03-5.14 1.47-5.26 1.96-.28 1.05-1.22.71-3.16-1.12z" style="fill:var(--bldc-phase-3-color);stroke-width:2.3622;stroke-dasharray:none" transform="translate(-2294.16 -1692.44)"/><path d="M2885.42 2540.76a12.7 12.7 0 0 1-5.05-5.47c-1.93-4.11-.78-9.33 2.83-12.94 2.66-2.66 3.66-2.97 10.6-3.23a237 237 0 0 0 90.27-21.9l5.4-2.53.8.93c1.69 1.99 2.33 3.88 2.33 6.82 0 2.3-.17 3.1-.93 4.69-2 4.1-1.18 3.73-16.6 7.79-17.37 4.57-24.37 6.75-39.91 12.43-11.24 4.1-20.11 6.77-37.84 11.35l-10.06 2.61c-.29.08-1.12-.17-1.84-.55zM3128.6 2287.14a15 15 0 0 1-6.73-5.33c-1.08-1.68-1.2-2.1-1.28-4.8-.99-33.33-8.17-63.84-22.2-94.34-2.63-5.7-2.65-5.54.91-7.29 3.53-1.73 8.21-1.1 11.57 1.57 1.91 1.51 1.48.27 5.6 16.05 3.6 13.72 6.05 21.84 9.3 30.83 6.72 18.58 9.13 26.34 14.2 45.7l2.8 10.77-.77 1.47a13.6 13.6 0 0 1-5.23 4.98c-2.1 1.07-5.76 1.25-8.16.39z" style="fill:var(--bldc-phase-3-color);stroke-width:2.3622;stroke-dasharray:none" transform="translate(-2294.16 -1692.44)"/><path d="M3150.24 2283.22a15 15 0 0 1-6.25-2.94c-.88-.78-1.26-1.94-3.57-10.84-4.9-18.86-7.31-26.68-13.63-44.16-4.25-11.78-7.37-22.34-12.19-41.3-.8-3.15-1.76-6.17-2.14-6.71l-.69-.98.93-1.34c2.76-3.98 9.72-5.98 14.52-4.17 1.11.43 2.54 1.22 3.17 1.78.63.55 1.28 1 1.45 1s.83 2.07 1.48 4.6c5.95 23.11 8.38 31.25 13.91 46.6 5.5 15.23 7.27 21.05 12.5 41.13 2.13 8.16 2.62 9.65 3.36 10.25l.88.71-1.18 1.55c-2.7 3.56-7.95 5.58-12.55 4.82z" style="fill:var(--bldc-phase-3-color);stroke-width:2.3622;stroke-dasharray:none" transform="translate(-2294.16 -1692.44)"/><path d="M3167.84 2278.46a16 16 0 0 1-3.5-1.94l-1.72-1.31-1.12-4.4c-5.51-21.62-8.58-31.8-14.65-48.6-4.76-13.18-7.51-22.47-13-43.9-1.15-4.52-1.41-5.2-2.14-5.47l-.83-.32 1.15-1.62c2.53-3.56 8.2-5.84 12.53-5.04 2.55.48 4.57 1.45 6.16 2.97 1.18 1.12 1.34 1.57 3.77 11.02 4.66 18.1 6.87 25.35 12.43 40.74a365 365 0 0 1 10.85 35.06l3.54 13.45c.39 1.48.83 2.61.98 2.52.15-.1.46.06.69.33.55.67-1.13 3.15-3 4.44-3.63 2.51-8.57 3.35-12.14 2.07z" style="fill:var(--bldc-phase-3-color);stroke-width:2.3622;stroke-dasharray:none" transform="translate(-2294.16 -1692.44)"/><path d="M3188.97 2274.56a15 15 0 0 1-5.76-2.97c-.9-.78-1.29-2-4.09-12.74-4.71-18.04-6.58-24.1-12.51-40.51a357 357 0 0 1-10.17-32.98c-4.7-17.94-4.3-16.67-5.54-17.1-.56-.2 1.85-3.32 3.4-4.38 3.86-2.66 9.63-3.23 13.24-1.32 3.82 2.03 3.6 1.59 6.77 13.78 4.82 18.53 6.69 24.65 12.18 39.82 5.29 14.6 7.72 22.66 13.01 43.22 1.12 4.35 2.2 7.9 2.41 7.9s.56.18.78.4c.55.55-1.25 3-3.26 4.46-2.84 2.03-7.32 3.07-10.47 2.42z" style="fill:var(--bldc-phase-3-color);stroke-width:2.3622;stroke-dasharray:none" transform="translate(-2294.16 -1692.44)"/><path d="M3207.06 2269.76c-.98-.34-2.56-1.2-3.5-1.93l-1.73-1.3-2.52-9.78c-4.85-18.83-7.03-25.93-12.92-42.23a344 344 0 0 1-10.32-33.4c-4.86-18.5-4.41-16.32-3.68-17.95.8-1.75 3.54-4.37 5.49-5.22 4.05-1.78 8.6-.92 12.19 2.28.9.8 1.28 1.93 3.74 11.37 5.03 19.28 6.86 25.26 12.46 40.71 5.68 15.7 6.73 19.25 14.59 49.51.19.72.47 1.23.63 1.14s.48.04.72.32c.74.9-2.08 4.14-4.86 5.57-3.12 1.6-7.24 1.97-10.29.91z" style="fill:var(--bldc-phase-3-color);stroke-width:2.3622;stroke-dasharray:none" transform="translate(-2294.16 -1692.44)"/><path d="M3228.39 2265.88c-1.78-.3-4.39-1.6-5.96-2.98-.9-.78-1.28-1.94-3.92-12.03-5.05-19.3-6.55-24.18-12.44-40.52-5-13.87-7.16-21-12.14-40.16l-2.64-10.15.69-1.34c.97-1.9 4.2-4.74 6.16-5.4 3.47-1.2 7.61-.42 10.8 2l1.72 1.33 1.67 6.47c5.37 20.9 7.84 29.08 13.72 45.4 4.52 12.53 7.5 22.3 11.63 38.21q3.09 11.89 3.54 11.9c.71 0 .9.97.34 1.82-2.55 3.88-8.31 6.27-13.17 5.45z" style="fill:var(--bldc-phase-3-color);stroke-width:2.3622;stroke-dasharray:none" transform="translate(-2294.16 -1692.44)"/><path d="M3246.28 2261.1a16 16 0 0 1-3.51-1.95l-1.73-1.32-1.98-7.68c-5.23-20.31-7.71-28.5-13.42-44.25-4.97-13.7-7.83-23.32-13.34-44.83-.75-2.9-1.57-5.34-1.94-5.76-.65-.7-.64-.74.33-2.08 1.82-2.52 5.46-4.43 9.27-4.88 2.56-.3 5.99.63 8.02 2.18a7 7 0 0 0 1.87 1.16c.19 0 .34.1.34.2 0 .42 6.25 24.07 7.47 28.27a370 370 0 0 0 7.86 23.58c4.97 13.77 7.22 21.17 11.91 39.24l2.65 10.17c.19.72.47 1.23.63 1.13s.48.04.71.32q.8.95-2.63 3.97c-3.1 2.72-8.78 3.87-12.5 2.54z" style="fill:var(--bldc-phase-3-color);stroke-width:2.3622;stroke-dasharray:none" transform="translate(-2294.16 -1692.44)"/><path d="M3264.73 2256.2c-3.82-1.97-3.87-2.05-5.78-9.33-6.09-23.27-7.71-28.66-13.51-44.77-5.5-15.27-7.7-22.7-14.59-49.43-.2-.78-.6-1.37-1.01-1.5-.93-.3-.88-.51.5-2.32 3.37-4.42 10.88-6.16 15.65-3.64 3.8 2.02 3.57 1.52 6.88 14.3 4.72 18.18 6.52 24.03 12.38 40.27 5.09 14.08 7.41 21.84 12.85 42.92 1.47 5.7 1.99 7.21 2.49 7.34 1 .26.74 1.07-.96 2.96a13 13 0 0 1-3.88 2.9c-2 .98-2.7 1.14-5.61 1.24-3.16.12-3.44.07-5.41-.94z" style="fill:var(--bldc-phase-3-color);stroke-width:2.3622;stroke-dasharray:none" transform="translate(-2294.16 -1692.44)"/><path d="M3285.49 2252.4c-1.9-.71-2.44-1.04-4.19-2.52-1-.84-1.25-1.62-3.72-11.1-5.03-19.32-7.03-25.84-12.68-41.44-5.2-14.34-8.05-24.01-14.1-47.68-.51-2.03-.81-2.62-1.45-2.86l-.8-.3 1.04-1.51c3.32-4.83 10.49-6.74 15.82-4.22 1 .47 2.1 1.17 2.44 1.55.73.8 1.52.96.87.18-.48-.58.04-1.63 1.67-3.39 1.44-1.54 1.57-1.1.25.87-.67 1-1.22 2.18-1.22 2.64s1.1 5.06 2.45 10.24c5.3 20.38 7.17 26.49 13.16 43.09 4.95 13.71 7.56 22.46 12.7 42.52 1.2 4.72 1.85 6.66 2.45 7.3l.8.88-.9 1.28c-1.1 1.53-3.86 3.5-6.02 4.27-2.53.9-6.44 1-8.57.2z" style="fill:var(--bldc-phase-3-color);stroke-width:2.3622;stroke-dasharray:none" transform="translate(-2294.16 -1692.44)"/><path d="M3305.46 2248.42c-1.75-.65-4.16-2.1-4.94-2.96-.42-.47-1.63-4.49-3.39-11.23-4.9-18.8-6.87-25.27-12.46-40.76-5.35-14.82-7.28-21.22-12.82-42.53l-2.13-8.21.73-1.43a12.3 12.3 0 0 1 5.46-5.13c2.63-1.2 6.64-1.03 9.43.4 2.03 1.04 4.87 3.67 5.7 5.27.27.55 1.8 5.69 3.36 11.42 4 14.58 6.4 22.21 10.55 33.74a386 386 0 0 1 9.39 28.74c1.07 3.81 2.1 7.2 2.3 7.54.39.7.72 2.96 1.72 11.78.73 6.47.73 6.48.05 7.82-.88 1.73-3.5 4.14-5.4 4.99-2 .88-5.9 1.17-7.55.55zM2777.94 2069.86c-3.04-3.68-2.77-10.06.58-13.9l1.3-1.49 11.15-2.9c18.7-4.87 23.98-6.5 40.3-12.37 12.46-4.49 22.5-7.54 38.46-11.71l11.8-3.09 1.58.8a11.1 11.1 0 0 1 5.88 9.6c0 3.26-.98 5.7-3.34 8.24-2.84 3.06-3.73 3.37-10.54 3.64a239 239 0 0 0-92.06 22.52l-4.08 1.92z" style="fill:var(--bldc-phase-3-color);stroke-width:2.3622;stroke-dasharray:none" transform="translate(-2294.16 -1692.44)"/><path d="M2776.32 2054.52c-2.38-1.75-3.98-4.48-4.66-7.93a11.6 11.6 0 0 1 1.05-7.87c1.88-3.74 1.28-3.44 12.94-6.48 19.47-5.08 25.83-7.04 41.73-12.8 14.14-5.11 20.2-6.92 45.04-13.38 3.12-.81 5.12-1.5 5.12-1.76 0-1.49 2.77-.04 4.5 2.35a13.4 13.4 0 0 1 .5 15.2c-1.57 2.44-.1 1.87-14.37 5.58-16.55 4.3-23.78 6.52-38.94 12-14.42 5.21-23.9 8.02-46.8 13.87-2.18.55-3.87 1.18-4.2 1.57-.55.62-.61.61-1.91-.35z" style="fill:var(--bldc-phase-3-color);stroke-width:2.3622;stroke-dasharray:none" transform="translate(-2294.16 -1692.44)"/><path d="M2772 2034.93c-2.99-2.2-4.88-6.24-4.9-10.44 0-2.86.78-5.21 2.52-7.55l1.18-1.58 7.64-1.98c20.58-5.31 28.72-7.79 44.69-13.57 13.49-4.9 22.99-7.72 44.34-13.18 3.99-1.02 5.17-1.46 5.67-2.11l.64-.82 1.52 1.09c2.95 2.12 4.71 5.65 4.94 9.9.21 3.87-.2 5.01-3.4 9.53-.1.13-5.56 1.66-12.15 3.38-19.08 5-23.44 6.33-39.74 12.2-14.88 5.36-22.24 7.56-43.56 13.04-5.02 1.29-6.57 1.82-7.12 2.45l-.69.8z" style="fill:var(--bldc-phase-3-color);stroke-width:2.3622;stroke-dasharray:none" transform="translate(-2294.16 -1692.44)"/><path d="M2767.45 2015.18c-1.63-1.23-3.53-4.1-4.2-6.32-.23-.76-.42-2.64-.43-4.17 0-2.45.13-3.05 1.13-5.03 1.97-3.92 1.23-3.55 13.7-6.81 18.74-4.9 24.87-6.78 41.05-12.62 14.14-5.09 22.32-7.52 45.03-13.37 2.8-.72 5.04-1.43 4.95-1.57s.07-.45.35-.68c.41-.34.78-.22 1.96.64 3.2 2.36 4.95 6.1 4.96 10.64.01 3.18-.92 5.63-2.97 7.88-1.12 1.22-1.48 1.36-8.11 3.06-20.22 5.16-28.06 7.53-43.74 13.18-14.89 5.38-23.17 7.86-43.97 13.2-5.71 1.48-7.2 1.98-7.34 2.48-.23.89-.66.8-2.37-.5z" style="fill:var(--bldc-phase-3-color);stroke-width:2.3622;stroke-dasharray:none" transform="translate(-2294.16 -1692.44)"/><path d="M2764 1994.52c-3.7-2.36-5.52-5.42-5.52-9.32 0-2.97.78-5.32 2.5-7.56l1.15-1.5 9.72-2.52c18.78-4.86 27.94-7.67 44.3-13.62 11.73-4.26 20.46-6.86 38.65-11.54 6.68-1.71 9.15-2.49 9.5-2.98.73-1 1.31-.81 3.32 1.09a13.7 13.7 0 0 1 3.68 12.78c-.32 1.35-1.8 4-3.26 5.84-.03.03-5.2 1.4-11.5 3.05-19.2 5.03-23.8 6.44-39.73 12.16-13.74 4.94-21.56 7.34-37.33 11.48l-13.19 3.46c-.43.12-1.3-.2-2.28-.82z" style="fill:var(--bldc-phase-3-color);stroke-width:2.3622;stroke-dasharray:none" transform="translate(-2294.16 -1692.44)"/><path d="M2759.79 1975a11.8 11.8 0 0 1-5.7-8.26c-.3-2.49.43-5.27 2.02-7.75l1.5-2.3c.05-.05 2.18-.65 4.73-1.31 24.93-6.55 30.95-8.31 42.48-12.5 17.67-6.4 24.14-8.4 42.36-13.17a733 733 0 0 1 12.8-3.28c.13 0 .16-.14.05-.31s.04-.5.32-.73c.4-.33.7-.27 1.5.3a15 15 0 0 1 4.22 5.05c2.18 5.08 1.52 10.2-1.77 13.8-1.16 1.27-1.3 1.32-13.95 4.61-15.66 4.08-24.2 6.7-37.8 11.6a355 355 0 0 1-24.22 7.98c-5.54 1.59-26.32 6.99-26.81 6.97a7 7 0 0 1-1.73-.7z" style="fill:var(--bldc-phase-3-color);stroke-width:2.3622;stroke-dasharray:none" transform="translate(-2294.16 -1692.44)"/><path d="M2753.7 1955.67c-2.09-1.99-3.09-3.87-3.76-7.1-.77-3.7-.01-6.96 2.35-10.1.94-1.25 1.49-1.62 2.9-1.98 22.06-5.63 33.89-9.08 45.44-13.26 19.23-6.95 24.63-8.6 46.19-14.17 6.21-1.6 8.47-2.32 8.88-2.84.77-.97 1.64-.61 3.6 1.49a12.6 12.6 0 0 1 3.57 8.3c.22 3.29-.4 5.51-2.28 8.21l-1.27 1.81-4 1.05c-26.12 6.85-32 8.6-46.5 13.86-15.14 5.48-21.6 7.46-41.12 12.55-5.9 1.54-11 3.03-11.3 3.31-.32.29-.66.52-.77.52s-.97-.74-1.93-1.65z" style="fill:var(--bldc-phase-3-color);stroke-width:2.3622;stroke-dasharray:none" transform="translate(-2294.16 -1692.44)"/><path d="M2750.2 1936.84c-4.54-3.3-6.17-10.52-3.56-15.73 1.92-3.8 1.05-3.4 15.05-7.05 17.18-4.49 23.65-6.48 38.62-11.86 15.04-5.41 20.84-7.18 39.3-12 9.34-2.44 11.31-3.06 11.86-3.74l.67-.82 1.33 1.07a13.5 13.5 0 0 1 5.13 10.92c.01 2.28-.14 2.92-1.11 4.86-1.9 3.8-1.9 3.8-9.12 5.67-22.32 5.8-28.7 7.7-43.55 13.05-16.37 5.9-20.79 7.25-39.74 12.2-9.17 2.38-12.09 3.27-12.45 3.8-.62.87-.73.86-2.42-.37z" style="fill:var(--bldc-phase-3-color);stroke-width:2.3622;stroke-dasharray:none" transform="translate(-2294.16 -1692.44)"/><path d="M2745.97 1917.34c-5.5-4.17-6.6-12.46-2.39-18.04 1.16-1.55 1.24-1.58 5.52-2.69 22.57-5.81 31.78-8.54 44.96-13.33 10-3.63 18.36-6.4 25.7-8.52 6.94-2 24.92-6.65 25.7-6.64.37 0 1.08-.5 1.58-1.11l.9-1.11 2.1 1.99c2.7 2.57 3.9 5.15 4.15 8.91.23 3.36-.43 5.63-2.37 8.23-1.15 1.53-1.65 1.89-3.18 2.32a1867 1867 0 0 1-13.15 3.47 354 354 0 0 0-35.38 10.91c-15.91 5.73-21.64 7.47-42.22 12.83-7.34 1.91-9.21 2.52-9.73 3.16l-.64.8z" style="fill:var(--bldc-phase-3-color);stroke-width:2.3622;stroke-dasharray:none" transform="translate(-2294.16 -1692.44)"/><path d="M2741.67 1896.17c-6.4-4.24-6.7-12.81-.64-18.35 2.15-1.96 2-1.9 16.93-6.03 12-3.31 18.14-5.23 26.55-8.27a542 542 0 0 1 32.46-10.7c4.2-1.2 7.71-2.28 7.8-2.42.1-.14 3.77-.67 8.16-1.17l9.09-1.05c2.08-.28 5.67 2.74 7.19 6.03 1.13 2.45 1.03 6.9-.2 9.22-1.9 3.6-1.84 3.57-15.31 7.1-15.87 4.14-24.58 6.8-37.4 11.41-11.69 4.2-20.14 6.96-27.75 9.04-9.8 2.68-23.88 6.29-24.55 6.29-.37 0-1.42-.5-2.33-1.1z" style="fill:var(--bldc-phase-3-color);stroke-width:2.3622;stroke-dasharray:none" transform="translate(-2294.16 -1692.44)"/><path d="M2699.32 1884.69c-.95-.84-13.38-27.1-13.38-28.26 0-.35.29-1.1.64-1.68.68-1.1 2.27-1.87 14.98-7.21 53.58-22.55 113.03-35.34 170.09-36.59 7.54-.16 10.09-.11 10.7.21 1.7.91 1.78 1.71 1.78 17.04s-.08 16.12-1.78 17.03c-.55.3-4.04.52-10.88.72-56.68 1.62-111.28 13.97-164.1 37.12-3 1.32-5.85 2.4-6.32 2.4a3.2 3.2 0 0 1-1.73-.78zM3095.86 1900.33c-41.8-23.5-92.4-41.03-141.01-48.87-9.37-1.5-27.17-3.83-29.38-3.83-.18 0-.8-.4-1.4-.9-1.37-1.15-1.37-.93.14-18.17l1.2-13.7 1.05-1.03 1.04-1.05 4.74.43c10.43.94 26.85 3.32 39.88 5.78a475 475 0 0 1 127.22 43.63c11.07 5.7 18.7 9.98 19.09 10.7.9 1.7.46 2.67-7.15 15.85-4.13 7.13-7.79 13.13-8.14 13.31-1.4.75-2.93.3-7.28-2.15zM3262.22 2062.3c-.42-.28-2.24-2.98-4.05-5.98a413 413 0 0 0-20.46-30.73c-1.68-2.29-3.12-4.47-3.2-4.85-.07-.38-1.04-1.64-2.15-2.81a62 62 0 0 1-3.73-4.38c-7.91-10.45-20.76-25.04-32.97-37.44a423 423 0 0 0-51.28-44.6c-3.77-2.8-7.1-5.48-7.42-5.96a2.5 2.5 0 0 1-.37-1.86c.21-1.07 16.05-24 17.47-25.3 1.68-1.53 2.65-1.17 8.68 3.26 42.48 31.22 78.43 67.9 108.3 110.51 6.68 9.51 20.13 30.62 20.73 32.52.13.42.02 1.27-.25 1.91-.43 1.04-1.96 2.02-13.54 8.7-8.57 4.96-13.38 7.55-14.03 7.55-.53 0-1.32-.24-1.73-.53zM3322.55 2281.59l-.96-.96-.24-7.8a452 452 0 0 0-4.05-49.96 439 439 0 0 0-33.1-116.62c-2.8-6.35-2.98-7.28-1.62-8.5 1.05-.96 27.2-13.04 28.22-13.04 1.73-.01 2.8 1.53 5.76 8.32a472 472 0 0 1 39.63 176.1c.36 11.48.29 12.18-1.37 13.06-.43.23-6.14.36-15.99.36h-15.32zM3278.44 2510.23c-6.97-4-13.02-7.69-13.45-8.17a3.2 3.2 0 0 1-.78-1.78c0-.5 1.63-3.9 3.63-7.55 4.53-8.3 12-23.4 15.61-31.5 1.5-3.4 2.87-6.17 3.02-6.17s.54-.9.85-2c.32-1.1 1.51-4.33 2.65-7.2a438 438 0 0 0 28.86-115.15c.86-7.6 1.07-8.26 2.88-8.96 1-.38 29.88 2.19 30.92 2.75.43.23 1 .86 1.29 1.4.45.9.42 1.8-.36 8.76a473 473 0 0 1-37.84 140.01c-6.27 14.14-19.97 40.8-21.7 42.26-1.52 1.27-2.37.91-15.58-6.7zM3119.7 2689.62c-.48-.43-4.1-6.4-8.07-13.28-7.5-12.97-7.99-14.12-6.77-15.58.26-.32 2.2-1.62 4.33-2.9a458 458 0 0 0 48.29-33.6c13.3-10.66 22.33-18.8 36.1-32.6 17.06-17.06 30.17-32.26 42.82-49.65 1.95-2.67 4-5.29 4.57-5.81 1.1-1.02 2.32-1.21 3.56-.56.42.22 6.1 4.13 12.62 8.7 13.24 9.27 13.21 9.24 11.92 11.87-.72 1.49-10.92 15.22-15.74 21.2-35.88 44.53-76.96 80.56-125.1 109.73-5.89 3.56-7 3.88-8.54 2.48zM2885.42 2753.94l-.94-1.12v-30.54l.98-.98c1.1-1.1-1.21-.89 19.46-1.75 52.48-2.17 106.9-15 156.28-36.82 2.99-1.32 5.7-2.4 6-2.4.32 0 1.02.23 1.55.5.82.42 2 2.7 7.28 14 6.72 14.38 7 15.26 5.5 16.68-1.92 1.8-23.17 10.6-40.33 16.72-45.46 16.17-96.64 25.64-143.89 26.61l-10.94.23zM2831.2 2752.15a475 475 0 0 1-124.99-31.92c-10.9-4.4-29.3-12.85-37.97-17.43-9.76-5.15-17.36-9.4-17.92-10.02-1.43-1.57-1.05-2.48 6.61-15.75 3.97-6.87 7.6-12.84 8.07-13.27 1.37-1.27 2.58-1 7.18 1.54 51.9 28.63 109.27 46.65 167.35 52.54 2.11.21 4.17.61 4.61.9 1.62 1.03 1.63 1.23.28 16.84-.7 8.08-1.36 14.96-1.46 15.29s-.58.91-1.07 1.3c-1.11.88-2.98.88-10.7-.02zM2609.4 2666.89a824 824 0 0 1-19.96-15.15 473 473 0 0 1-109.06-124.25c-3.83-6.34-4.21-7.39-3.23-8.8.67-.95 26.2-15.73 27.18-15.73 1.67 0 2.55.85 4.84 4.66 7.08 11.82 16.42 25.83 23.05 34.6 1.1 1.47 1.91 2.75 1.8 2.86s.75 1.26 1.92 2.56c1.16 1.3 4.41 5.24 7.22 8.78 23.48 29.56 53 57.72 84.21 80.32 2.06 1.49 3.9 2.99 4.08 3.34 1 1.86.66 2.47-8.17 15.09-4.68 6.68-8.77 12.34-9.09 12.58-1.1.82-2.94.5-4.79-.86zM2455.7 2480.31c-.93-.92-5.51-11.2-9.88-22.13a473 473 0 0 1-33.63-163.71l-.23-9.08 1.07-1.07 1.07-1.07h15.4c16.98 0 16.55-.06 17.23 2.17.18.62.43 5.26.55 10.32.23 10.14.86 20.05 1.95 30.87.4 3.9.64 7.42.54 7.8-.1.4.05 1.62.34 2.73.28 1.1.83 4.23 1.21 6.95a440 440 0 0 0 32.46 114.32c1.6 3.68 2.92 7.15 2.92 7.7 0 .57-.27 1.35-.6 1.75-.87 1.04-27.16 13.23-28.53 13.23-.68 0-1.4-.3-1.88-.78zM2430.82 2243.07c-8.85-.78-14.1-1.4-14.8-1.72-1.86-.85-2.02-1.79-1.37-8a474 474 0 0 1 47.95-162.88c5.74-11.35 10.8-20.53 11.8-21.43 1.75-1.55.76-2.02 24.59 11.73 3.66 2.12 4.56 2.8 4.96 3.74.27.64.4 1.42.3 1.74s-1.69 3.31-3.52 6.65a624 624 0 0 0-16.14 32.63c-1.21 2.77-2.35 5.14-2.53 5.26s-.82 1.69-1.43 3.47c-.6 1.79-2.6 7.08-4.43 11.77-13.1 33.57-22.23 70.9-26.45 108.24-.92 8.18-1.2 9.15-2.83 9.77-1.07.4.33.49-16.1-.97zM2512.35 2022.22c-6.56-4.59-12.29-8.73-12.72-9.22-1.34-1.5-1.04-2.5 2.05-6.8 34.06-47.44 79.9-90.58 129.57-121.95 14.16-8.94 15.67-9.65 17.42-8.23.4.33 4.04 6.33 8.07 13.33 7.72 13.41 8.08 14.27 6.72 15.83-.33.38-3.26 2.3-6.5 4.26-39.56 23.87-76.35 55.41-107.29 91.96a506 506 0 0 0-17.23 21.9c-2.78 3.74-5.31 6.9-5.64 7.03-1.72.66-2.52.21-14.45-8.11z" style="fill:var(--bldc-gray-2-color);stroke-width:2.3622;stroke-dasharray:none" transform="translate(-2294.16 -1692.44)"/><path d="M2466.64 2411.04c-.44-1.13-4.22-14.5-5.35-18.9a447 447 0 0 1-8.38-40.18c-.96-6.06-1.33-8.62-1.23-8.72.04-.04.63 1.96 1.3 4.43 2.65 9.6 5.69 19.02 9.78 30.27a385 385 0 0 1 10.1 31.89c.06.35-.3.48-2.97 1.08l-3.04.68zM2461.37 2186.57c-2.84-.9-2.86-.92-2.8-1.52.04-.33.77-3.46 1.63-6.96a440 440 0 0 1 15.97-51c2.43-6.37 3.05-7.88 3.15-7.78.04.04-.63 2.89-1.5 6.32-2.78 11.05-3.84 16.16-6.8 32.74-.55 3.03-1.42 7.52-1.94 9.96-1.17 5.55-4.53 19.2-4.71 19.18-.08-.01-1.42-.44-3-.94zM2566.25 1988.09c-1.13-1.24-2.03-2.34-2-2.44.18-.52 11.37-11.91 16.81-17.12a378 378 0 0 1 18.77-17.13c6.18-5.3 14.8-12.3 14.97-12.13.05.06-1.65 1.91-3.78 4.11a341 341 0 0 0-19.56 21.71c-6 7.13-8.43 9.92-12.2 14a422 422 0 0 1-10.82 11.19c-.07.03-1.06-.95-2.19-2.2zM2756.87 1871.21c-.21-.72-1.19-5.2-1.19-5.48 0-.31 1.57-.82 9.33-3.03a436 436 0 0 1 49.79-11.03c6.8-1.1 8.74-1.36 8.85-1.25.05.05-1.36.49-3.14.97-9.9 2.68-18.67 5.5-31.22 10.01-8.94 3.22-14.8 5.2-20.35 6.86a338 338 0 0 1-11.76 3.32c-.1 0-.25-.16-.3-.37zM3041.94 1876.65c-3.1-.8-8.39-2.07-11.77-2.83-6.2-1.38-8.73-1.87-20.88-4.04-3.68-.66-8.64-1.62-11.03-2.14-5.06-1.09-18.28-4.32-18.48-4.51-.07-.07.3-1.45.81-3.07l.94-2.93.9.15c3 .5 20.39 5.13 28.5 7.6 11.8 3.59 27.7 9.18 36.2 12.73 1.94.8.95.62-5.19-.96zM3226.51 2012.36a552 552 0 0 0-13.88-13.12 517 517 0 0 0-8.7-7.5c-11.97-10.12-14.43-12.33-22.44-20.05l-4.75-4.57 2.3-2.16 2.31-2.15 1.25 1.07c.68.6 4.15 3.95 7.72 7.46a433 433 0 0 1 32.5 35.63c4.56 5.61 5.57 6.9 5.47 7-.05.05-.85-.68-1.78-1.61zM3315.59 2218.54a369 369 0 0 0-9.68-30.1c-3.65-10.14-4.96-14-6.84-20.24a775 775 0 0 1-5.53-19.58c-.64-2.33-1.1-4.3-1.01-4.37.08-.07 1.2-.35 2.48-.62s2.48-.56 2.67-.65c.38-.2.3-.4 3.08 8.4a437 437 0 0 1 14.8 62.58c1 6.25 1.29 8.34 1.14 8.34-.05 0-.55-1.7-1.11-3.76zM3289.2 2446.26c-.02-.16.5-2.3 1.14-4.78 2.53-9.83 4.27-18 6.36-29.83 1.27-7.2 2.12-11.6 3.1-16.11.96-4.38 4.04-16.84 4.22-17.03.08-.1 1.46.24 3.07.74l2.9.91-.13.85a375 375 0 0 1-4.37 17.5 456 456 0 0 1-13.55 41.19c-2.14 5.58-2.72 6.97-2.75 6.56zM3157.75 2622.16c8.52-8.86 11.16-11.8 20.14-22.46 7.52-8.92 15.11-17.25 20.83-22.86l1.4-1.38 1.57 1.7c.86.94 1.81 2 2.11 2.35l.54.65-3.2 3.37a441 441 0 0 1-40.78 37.83c-5.27 4.3-6.8 5.51-7 5.51-.08 0 1.9-2.12 4.39-4.71zM2944.5 2715.4l3.82-1.06a374 374 0 0 0 30.43-9.75c12.59-4.55 16.18-5.72 26.5-8.68l6.26-1.78.68 3c.81 3.6.78 3.25.33 3.38-18.85 5.56-32.04 8.79-48.19 11.82-8.66 1.63-21.35 3.6-19.82 3.07zM2786.03 2708.57a444.07 444.07 0 0 1-57.7-17.61c-5.83-2.23-7.87-3.06-7.77-3.17.04-.04 2.3.5 5.04 1.2a354 354 0 0 0 29.66 6.35 366 366 0 0 1 19.4 3.83c4.1.94 13.94 3.41 14.08 3.54.17.14-1.78 6.01-1.99 5.98zM2866.82 2517.97c-56.85-4.07-113.4-30.95-153.24-72.85-33.65-35.4-55.4-80.26-62.78-129.5-2.48-16.56-2.47-49.1.02-65.52 13.78-90.8 74.93-163.14 161.99-191.66 47.5-15.56 104.14-14.45 151.82 2.98 14.38 5.25 36.7 16.62 49.98 25.43 55.97 37.17 93.02 96.02 103.08 163.68 2.34 15.76 2.34 48.9 0 64.65-7.84 52.74-32.3 100.73-69.82 136.94-48.2 46.53-114.43 70.62-181.05 65.85zm40.7-59c37.47-4.35 74.41-22.58 102.3-50.48 84.13-84.13 63.18-225.79-41.74-282.29-17.72-9.54-41.45-17.06-61.85-19.6-14.23-1.77-44.02-.72-56.78 2-68.6 14.64-120.62 64.26-137.42 131.07-4.26 16.98-5.36 28.13-4.8 48.89.36 13.08 1.1 21.15 2.69 29.01a178.2 178.2 0 0 0 96.85 125.19c31.44 15.23 64.1 20.49 100.75 16.22z" style="fill:var(--bldc-gray-2-color);stroke-width:2.3622;stroke-dasharray:none" transform="translate(-2294.16 -1692.44)"/><path d="M2852.5 2871.87c-225-12.77-422.8-151.41-510.82-358.06-21.77-51.12-36.65-107.53-43.77-165.91-3.7-30.4-3.32-105.08.7-135.42 17.47-132.02 72.18-246.6 162.3-339.92 96.18-99.59 222.77-160.83 365.02-176.6 28.07-3.1 88.91-3.1 116.99 0 73.74 8.18 140.08 27.38 202.86 58.72 28.92 14.44 38.9 20.2 65.5 37.87 98.32 65.28 174.93 159.21 219.61 269.26 38.98 96.01 51.83 202.45 36.96 306.14-4.78 33.35-14.07 71.56-25.66 105.61-50.56 148.53-160.72 272.78-301.76 340.33-73.2 35.06-145.49 53.51-227.26 58.02-26.54 1.46-34.3 1.46-60.67-.04zm94.76-36.66c88.05-10.76 167.93-39.64 241-87.14 73.38-47.7 135.53-113.74 179.07-190.28 77.86-136.9 93.99-302.01 44.03-450.67-8.72-25.95-14.77-40.9-26.18-64.7a555.2 555.2 0 0 0-425.22-310.07c-38.03-5.24-89.39-6.31-127.76-2.67-263.51 25.01-472.6 231.63-500.57 494.64a557 557 0 0 0 25.19 233.53c21.25 64.37 56.09 127.42 98.85 178.9 96.78 116.5 232.24 187.06 384.64 200.36 21.18 1.85 85.66.7 106.95-1.9z" style="fill:var(--bldc-gray-2-color);stroke-width:2.3622;stroke-dasharray:none" transform="translate(-2294.16 -1692.44)"/><path d="M2520.33 2701.38c-3.18-1.5-27.42-24.6-40.6-38.7a555 555 0 0 1-88.25-124.67c-5.22-10.06-5.44-10.62-4.99-12.73.6-2.76.23-2.55 24.16-14.07 11.99-5.77 22.28-10.6 22.87-10.73.62-.14 1.6-.13 2.31.02 2.26.49 3 1.4 6.45 8.1 24.52 47.53 53.78 87.78 90.8 124.9a505 505 0 0 0 21.4 20.3c3.87 3.51 4.64 4.74 4.43 6.99a6 6 0 0 1-.66 2.3c-.28.45-7.63 9.12-16.32 19.28-16.94 19.79-16.7 19.55-19.33 19.55-.62 0-1.64-.24-2.27-.54zM2868.15 2837.58a562 562 0 0 1-84.71-9.02c-9.25-1.7-17.29-3.44-18.41-3.97a5.9 5.9 0 0 1-2.82-4c-.26-1.76 10.28-48.17 11.36-50.02.78-1.32 3.1-2.71 4.54-2.71.44 0 3.65.58 7.13 1.3a496 496 0 0 0 180.88 3.18c6.48-1.08 7.61-1.16 8.87-.69a6.6 6.6 0 0 1 3.43 3.9c.22.8 2.4 11.9 4.84 24.65 4.14 21.67 4.4 23.28 4.08 24.5a5.4 5.4 0 0 1-2.67 3.57c-1.9 1.06-23.79 4.46-40.24 6.25a586 586 0 0 1-39.67 2.92c-10.7.3-28.82.37-36.61.14zM3229.6 2714a9 9 0 0 1-1.8-.95c-.89-.67-30.47-37.75-31.12-39.01-.63-1.23-.58-3.6.11-4.96.39-.75 2.24-2.5 5.73-5.42a505 505 0 0 0 60.13-59.7 495 495 0 0 0 54.74-78.9c4.36-7.8 4.35-7.78 5.99-8.58 2.7-1.3 2.01-1.6 25.99 11.01 23.21 12.2 23.15 12.16 23.8 14.75.47 1.88.15 2.77-3.2 8.87a556 556 0 0 1-70.84 100.22 586 586 0 0 1-46.94 46.89c-7.3 6.47-17.88 15.3-18.71 15.62a6 6 0 0 1-3.88.15zM3384.73 2282.45a5.6 5.6 0 0 1-3.7-3.22c-.42-.95-.54-2.38-.7-7.85-1.74-62.39-13.63-119.3-36.92-176.68-1.49-3.67-2.8-6.98-2.9-7.35s-.04-1.34.15-2.16c.7-2.94.28-2.7 24.97-13.52 12.22-5.35 22.72-9.8 23.32-9.88 1.45-.2 3.37.55 4.49 1.75 1.25 1.34 5.9 12.54 11.41 27.53 21 57.04 32.07 114.37 34.04 176.34.3 9.36.29 10.38-.15 11.53a6 6 0 0 1-4.21 3.6c-2.3.49-47.94.4-49.8-.1zM3191 1892.26c-.57-.16-3.57-2.23-6.69-4.58a487 487 0 0 0-77.88-48.44 489 489 0 0 0-84.56-33.1c-5.9-1.71-7.12-2.32-8.14-4-1.23-2.02-1.33-1.53 5.38-26.86 3.54-13.34 6.56-24.19 6.9-24.73a5.9 5.9 0 0 1 4-2.54c1.07-.14 2.53.18 7.99 1.76a556 556 0 0 1 172.6 84.46c11.43 8.3 15.62 11.62 16.34 12.9.8 1.38.89 3.8.21 5.1-.25.5-7.18 9.35-15.41 19.68-10.67 13.4-15.31 19.02-16.18 19.59a5.6 5.6 0 0 1-4.57.76zM2588.67 1881.85a7 7 0 0 1-1.89-.87c-.94-.64-28.8-37.86-30.07-40.18a5.2 5.2 0 0 1-.1-4.72c.66-1.45.97-1.72 5.98-5.29a557 557 0 0 1 140.94-72.48c18.77-6.48 49.02-15.08 53.04-15.08 2.34 0 4.51 1.76 5.2 4.21.57 2.03 10.77 47.02 10.77 47.5 0 1.06-.67 2.71-1.45 3.6-1.14 1.3-2.12 1.68-8.86 3.4a495 495 0 0 0-163.75 75.26 176 176 0 0 1-6.25 4.28c-.9.45-2.52.62-3.56.37zM2358.6 2264.4l-21.42-.78c-2.82-.12-3.24-.2-4.48-.98-1.9-1.17-2.73-2.8-2.72-5.33 0-2.7.76-14.33 1.46-22.4a555 555 0 0 1 37.47-157.64c5.18-12.97 12.75-30.07 13.83-31.27.27-.3 1.03-.8 1.7-1.13 2.56-1.23 1.76-1.54 25.86 10.05 14.44 6.94 22.43 10.94 23.05 11.53a5.8 5.8 0 0 1 1.74 4.52c-.08.62-1.52 4.18-3.2 7.92a475 475 0 0 0-17.26 43.7c-14.58 42.73-23 85.8-25.8 131.76-.4 6.6-.44 6.83-1.23 8.11a5.7 5.7 0 0 1-2.1 2c-1.6.84-1.86.84-26.9-.06z" style="fill:var(--bldc-north-color);stroke-width:2.3622;stroke-dasharray:none" transform="translate(-2294.16 -1692.44)"/><path d="M2376.61 2503.53c-2.07-1.13-2.42-1.8-7.11-13.48a555 555 0 0 1-38.34-162.59c-.98-12.26-1.76-28.14-1.77-35.97 0-4.99.67-6.56 3.34-7.8 1.1-.5 2.48-.53 26.04-.53l24.87-.01 1.28.67a6 6 0 0 1 2.15 2.08c.8 1.29.87 1.63.94 4.48.84 33.05 3.66 59.64 9.42 88.66 6.43 32.43 14.95 60.78 27.74 92.32 2.97 7.33 3.21 8.48 2.18 10.49-.3.6-.87 1.37-1.25 1.73-.39.36-10.7 5.05-22.91 10.43-19.72 8.68-22.42 9.8-23.96 9.89-1.24.07-2-.04-2.62-.37zM2729.97 2815.92c-62.6-18.33-119.63-46.22-171.45-83.84-11.39-8.27-16.2-12.06-16.99-13.4a5.3 5.3 0 0 1 0-5.39c1.2-2.06 30.28-38.3 31.33-39.03 1.32-.9 3.93-1.1 5.3-.4.54.28 3.54 2.43 6.66 4.78 39.71 29.89 80.18 52.06 127.13 69.65a578 578 0 0 0 32.23 10.68c7.9 2.3 8.62 2.58 9.82 3.85a5 5 0 0 1 1.4 3.7c0 .99-10.83 42.75-12.25 47.25a5.6 5.6 0 0 1-5.4 4.05c-.8-.02-4.1-.82-7.78-1.9zM3009.72 2822.02a5 5 0 0 1-2.24-1.98c-.54-.93-2.03-7-6.1-24.79-2.95-12.96-5.37-24-5.37-24.53a5.8 5.8 0 0 1 2.29-4.26c.92-.67 2.49-1.18 7.21-2.36 50.5-12.63 99.25-33.56 144.37-62.02 6.91-4.36 11.7-7.55 19.46-12.99 3.36-2.34 6.55-4.5 7.1-4.77 1.3-.67 3.63-.49 5.04.38.74.46 5.34 6.44 15.65 20.33 8.03 10.82 14.77 20.13 14.97 20.69s.38 1.28.38 1.6a6.5 6.5 0 0 1-1.32 3.61c-1 1.2-8.06 6.22-19 13.52a554 554 0 0 1-153.15 71.32c-10 2.92-25.8 7-27.1 7-.37 0-1.36-.33-2.2-.75zM3380.17 2521.3c-1.8-.51-44.15-20.98-45-21.76a6.4 6.4 0 0 1-1.78-4.23c-.01-.99.57-2.54 2.6-7.03 25.28-55.7 40.23-116.16 43.6-176.36.2-3.28.47-6.45.62-7.05a6.4 6.4 0 0 1 3.35-3.76c1.2-.52 1.74-.52 25.82.34 27.17.97 26.12.86 27.82 2.88 1.44 1.71 1.5 2.41.97 11.12-3.98 64.98-18.56 126.73-43.91 185.93-4.16 9.72-7.83 17.65-8.5 18.39a5.8 5.8 0 0 1-5.6 1.53zM3331.4 2064.9c-1.65-.85-2.2-1.64-4.85-6.96a514 514 0 0 0-18.38-33 498 498 0 0 0-92.99-111.83 65 65 0 0 1-4.92-4.73c-.68-1.03-.84-3.78-.3-5.04.57-1.33 31.9-37.9 33.1-38.63.5-.3 1.4-.64 2-.74 2.1-.35 3.27.25 7.2 3.7 15.06 13.24 33.82 32.05 48.17 48.32a552 552 0 0 1 77.6 113.95c4.52 8.86 4.67 9.33 3.62 11.58-.3.64-.91 1.51-1.37 1.93-.46.43-10.7 5.52-22.77 11.32-24.09 11.58-23.6 11.4-26.1 10.13zM2983.22 1796.7c-20.88-4.4-46.15-7.73-69.45-9.15-13.03-.79-37.86-1-50.15-.44-21.8 1-41 3-61.47 6.4-6.56 1.1-6.92 1.13-8.32.72-1.47-.44-3.3-2.05-3.67-3.24-.45-1.43-9.19-47.73-9.19-48.68 0-.59.14-1.44.3-1.9.43-1.13 2.24-2.92 3.31-3.27 1.22-.4 13.3-2.4 21.97-3.62a535 535 0 0 1 77.87-5.4c26.16 0 49 1.52 74.4 4.95 16.75 2.27 41.94 6.89 44.5 8.17a5.8 5.8 0 0 1 2.87 3.74c.32 1.23.04 2.59-5.06 24.99-3.39 14.86-5.64 24.15-6.04 24.95a6 6 0 0 1-1.8 2.02c-1.73 1.15-3.68 1.1-10.07-.24zM2441.02 2049.73c-.92-.33-40.14-20.86-42.75-22.37-1.27-.74-1.75-1.2-2.3-2.15a5.6 5.6 0 0 1-.76-4.07c.4-1.69 9.25-17.32 16.32-28.8a558 558 0 0 1 66.67-87.63 772 772 0 0 1 27.56-27.57c6.6-6.15 14.23-12.9 20.99-18.58 8.47-7.13 8.26-6.99 10.49-6.99 1.65 0 2.93.56 4.09 1.8 1.33 1.4 30.1 37.62 30.5 38.36.93 1.81.57 4.6-.8 6.08-.35.39-2.63 2.37-5.06 4.4a498 498 0 0 0-115.9 140.45c-3 5.44-3.83 6.45-5.76 7.02-1.47.44-2.17.45-3.29.05z" style="fill:var(--bldc-south-color);stroke-width:2.3622;stroke-dasharray:none" transform="translate(-2294.16 -1692.44)"/><path d="M2879.1 2447.98c-43.46-1.74-82.65-18.97-112.66-49.52a160 160 0 0 1-30.26-42.65 164.2 164.2 0 0 1-10.54-118.63 165.1 165.1 0 0 1 104.86-110.33c12.2-4.2 24.01-6.8 37.54-8.28 7.5-.83 25-.82 32.5.01 7.87.88 16.46 2.38 23.47 4.12a165.2 165.2 0 0 1 122.14 128.13 165.1 165.1 0 0 1-49.28 152.74 165.6 165.6 0 0 1-99.4 43.9c-5.12.41-14.44.67-18.37.51zm18.2-47.42c22.9-2.8 43.5-11.36 61.08-25.39 4.76-3.8 14.22-13.23 17.78-17.72 15.27-19.3 23.97-40.97 25.97-64.7.57-6.75.23-19.9-.66-25.93a121 121 0 0 0-6.42-25.35c-9.03-23.76-24.32-43.04-45.15-56.96a118 118 0 0 0-55.26-19.45c-5.76-.52-20.57-.23-25.75.5-29.95 4.24-56.11 18.58-75.19 41.2a118.4 118.4 0 0 0-27.44 67.27c-.48 6.28-.23 17.43.53 23.42 5.77 45.34 36.74 83.23 79.8 97.64 9.24 3.09 17.23 4.68 29.78 5.94 2.42.24 17.95-.1 20.93-.47z" style="fill:var(--bldc-gray-1-color);stroke-width:2.3622;stroke-dasharray:none" transform="translate(-2294.16 -1692.44)"/><path d="m2873.65 2459.56-5.61-.5c-21.06-1.8-42.57-7.92-62.27-17.71-18.82-9.36-33.36-19.94-48.16-35.06a174 174 0 0 1-36.68-55.45c-7.74-18.58-11.75-36.11-13.43-58.67-.32-4.33.05-20.9.58-26.03 6.72-65 46.72-119.9 106.1-145.62a176.3 176.3 0 0 1 98.08-12.25 177 177 0 0 1 121.6 80.35 176.5 176.5 0 0 1 22.03 136.92 177 177 0 0 1-35.91 70.76c-29.66 35.41-71.09 57.48-117.57 62.64-4.63.51-25.2.96-28.76.62zm20.25-11.38c51.04-3.16 96.93-28.83 126.17-70.6a169 169 0 0 0 25.92-59.27 171 171 0 0 0 2.36-57.1 166 166 0 0 0-29.53-74.7 170 170 0 0 0-35.92-36.57 166.5 166.5 0 0 0-70.23-30.13 176 176 0 0 0-49.06-1.16c-63.33 8.09-116.15 51.33-136.3 111.6a165.57 165.57 0 0 0 166.58 217.94z" style="fill:var(--bldc-gray-3-color);stroke-width:2.3622;stroke-dasharray:none" transform="translate(-2294.16 -1692.44)"/><path d="M2878.42 2400.67c-28.52-1.76-54.2-12.66-74.67-31.69-36.79-34.2-47.65-88.63-26.87-134.61 5.94-13.16 13.43-23.9 24.11-34.6 19.05-19.05 41.53-30.1 68.92-33.89 6.24-.86 22.28-.86 28.58 0 14.72 2 26.5 5.64 39.26 12.13 36.7 18.64 60.78 54.86 64.04 96.3.49 6.23.25 16.6-.53 22.8a118.1 118.1 0 0 1-88.59 100.17c-10.57 2.66-24.2 4-34.25 3.38zm15.53-11.7a105 105 0 0 0 38.98-11.38 106.4 106.4 0 0 0 54.53-68.45 100 100 0 0 0 3.17-26.15c0-11.89-1.56-22.07-5.02-32.79-17.77-54.95-75.94-85.66-131.5-69.42a105 105 0 0 0-46.3 28.06 91 91 0 0 0-12.08 14.94c-9.77 14.66-15.35 30-17.38 47.8-.77 6.7-.52 20.3.47 26.72 6.09 39.2 31.84 70.93 68.63 84.58 7.82 2.9 19.35 5.47 27.9 6.21 3.2.28 15.36.2 18.6-.11z" style="fill:var(--bldc-gray-3-color);stroke-width:2.3622;stroke-dasharray:none" transform="translate(-2294.16 -1692.44)"/><path d="M2583.75 2599.94a441 441 0 0 1-38.07-41.04c-4.38-5.38-5.56-6.89-5.56-7.1 0-.1 1.57 1.37 3.49 3.27a350 350 0 0 0 22.46 20.34 334 334 0 0 1 21.45 19.26l4.18 4.06-2.25 2.12a34 34 0 0 1-2.37 2.12c-.07 0-1.57-1.36-3.33-3.03z" style="fill:var(--bldc-gray-2-color);stroke-width:2.3622;stroke-dasharray:none" transform="translate(-2294.16 -1692.44)"/></g></svg>